<svg xmlns="http://www.w3.org/2000/svg" xmlns:xlink="http://www.w3.org/1999/xlink" width="500" zoomAndPan="magnify" viewBox="0 0 375 374.999991" height="500" preserveAspectRatio="xMidYMid meet" version="1.0"><defs><clipPath id="844455a45f"><path d="M 16.5 146.03125 L 343.5 146.03125 L 343.5 345.53125 L 16.5 345.53125 Z M 16.5 146.03125 " clip-rule="nonzero"/></clipPath><clipPath id="48f41ee347"><path d="M 116.695312 125 L 203 125 L 203 284.222656 L 116.695312 284.222656 Z M 116.695312 125 " clip-rule="nonzero"/></clipPath><clipPath id="63f86ec2f3"><path d="M 116.695312 117 L 182 117 L 182 284.222656 L 116.695312 284.222656 Z M 116.695312 117 " clip-rule="nonzero"/></clipPath><clipPath id="2e5064a3d8"><path d="M 127 29.222656 L 236 29.222656 L 236 173 L 127 173 Z M 127 29.222656 " clip-rule="nonzero"/></clipPath><clipPath id="c1db7da3fd"><path d="M 116.695312 252 L 147 252 L 147 284.222656 L 116.695312 284.222656 Z M 116.695312 252 " clip-rule="nonzero"/></clipPath></defs><rect x="-37.5" width="450" fill="#ffffff" y="-37.499999" height="449.999989" fill-opacity="1"/><rect x="-37.5" width="450" fill="#ffffff" y="-37.499999" height="449.999989" fill-opacity="1"/><rect x="-37.5" width="450" fill="#121416" y="-37.499999" height="449.999989" fill-opacity="1"/><g clip-path="url(#844455a45f)"><path fill="#ff0084" d="M 52.796875 328.003906 C 51.542969 329.253906 50.472656 329.789062 48.863281 328.539062 C 48.503906 328.183594 47.96875 328.183594 47.253906 328.003906 C 47.433594 327.648438 47.789062 327.109375 48.148438 326.398438 C 47.433594 326.21875 46.359375 326.21875 46 325.683594 C 45.644531 325.148438 46 324.253906 46.179688 323.003906 C 45.464844 323.183594 44.570312 323.183594 43.855469 323.359375 L 42.785156 321.21875 C 43.140625 321.21875 43.675781 321.039062 44.214844 321.039062 L 44.214844 320.683594 C 43.675781 320.503906 42.960938 320.324219 42.960938 320.324219 C 42.425781 319.613281 42.246094 319.253906 41.890625 319.074219 C 41.53125 318.898438 41.175781 318.71875 40.996094 318.539062 C 40.460938 318.183594 40.101562 317.828125 39.566406 317.289062 C 40.28125 316.933594 40.816406 316.753906 41.53125 316.398438 C 41.890625 316.21875 42.425781 316.21875 42.785156 316.039062 C 42.425781 315.683594 42.066406 315.503906 41.710938 315.148438 C 41.351562 314.789062 40.996094 314.253906 40.816406 313.71875 C 40.460938 312.46875 40.28125 311.21875 39.921875 309.96875 C 39.566406 309.253906 38.851562 308.542969 38.3125 307.828125 C 38.136719 307.648438 37.597656 307.46875 37.417969 307.292969 C 36.703125 306.042969 36.527344 304.078125 35.632812 303.363281 C 33.84375 301.933594 35.632812 299.972656 34.203125 298.722656 C 33.84375 298.363281 33.308594 297.828125 33.308594 297.292969 C 33.308594 296.042969 30.984375 295.507812 32.414062 293.902344 C 32.59375 293.722656 31.699219 291.9375 30.984375 291.402344 C 28.660156 289.613281 29.195312 286.578125 27.765625 284.4375 C 27.585938 284.082031 28.121094 283.367188 28.121094 282.832031 C 25.796875 281.402344 25.261719 279.257812 26.515625 277.117188 C 25.621094 276.402344 24.726562 275.867188 24.011719 275.152344 L 23.472656 274.617188 C 26.871094 273.902344 25.796875 271.046875 26.335938 268.902344 C 25.621094 268.546875 25.082031 268.367188 24.191406 268.011719 C 24.546875 267.652344 24.90625 267.476562 25.261719 267.117188 C 24.011719 265.867188 20.257812 265.511719 23.652344 262.296875 C 22.582031 261.941406 21.6875 261.582031 20.433594 261.226562 C 21.148438 260.691406 21.6875 260.332031 22.222656 259.976562 C 21.6875 259.617188 20.972656 259.441406 20.257812 258.90625 C 19.542969 258.011719 22.222656 255.867188 19.363281 254.796875 L 19.363281 252.121094 C 19.542969 251.941406 20.078125 251.582031 20.792969 251.226562 C 19.898438 251.046875 19.363281 250.871094 19.183594 250.871094 C 18.824219 249.085938 18.46875 247.476562 18.109375 246.046875 C 17.753906 246.046875 17.574219 245.871094 17.21875 245.871094 C 17.753906 245.691406 18.109375 245.511719 18.648438 245.335938 C 18.648438 245.15625 18.46875 244.976562 18.46875 244.800781 C 17.753906 244.441406 17.21875 244.261719 16.5 243.90625 C 16.5 243.726562 16.5 243.191406 16.679688 242.835938 C 17.21875 242.835938 17.933594 243.011719 18.46875 243.011719 C 24.726562 237.835938 28.300781 236.230469 37.417969 234.085938 C 42.425781 232.835938 47.253906 231.230469 52.082031 229.800781 C 53.511719 229.265625 55.121094 228.730469 56.371094 227.835938 C 57.085938 227.300781 57.265625 226.050781 57.445312 224.980469 C 57.445312 224.445312 56.730469 223.730469 56.011719 223.550781 C 54.40625 222.835938 54.582031 221.585938 54.761719 220.515625 C 54.046875 219.800781 53.332031 219.265625 52.617188 218.550781 C 53.152344 217.835938 53.511719 217.300781 53.867188 216.765625 C 51.007812 217.300781 51.902344 214.800781 51.542969 213.730469 C 50.648438 211.589844 50.472656 209.445312 49.933594 207.125 C 50.113281 207.125 50.472656 207.125 50.828125 207.304688 C 49.933594 204.625 49.21875 202.125 48.324219 199.445312 C 48.503906 199.445312 48.683594 199.269531 48.863281 199.269531 C 48.324219 198.734375 47.609375 198.375 46.894531 197.660156 C 48.148438 196.234375 49.578125 195.160156 49.757812 193.199219 C 49.933594 190.875 52.4375 190.164062 54.40625 189.269531 C 59.769531 187.128906 65.308594 185.164062 70.675781 182.84375 C 74.070312 181.414062 77.289062 179.628906 80.6875 178.199219 C 83.902344 176.769531 87.121094 175.34375 90.519531 174.09375 C 93.738281 172.84375 97.132812 171.773438 100.351562 170.878906 C 103.214844 170.164062 106.253906 169.808594 109.113281 169.09375 C 110.363281 168.914062 111.4375 168.199219 112.511719 167.84375 C 118.230469 166.238281 123.953125 164.808594 129.496094 163.203125 C 134.320312 161.953125 138.96875 160.523438 143.796875 159.988281 C 145.765625 159.808594 147.730469 157.667969 149.875 159.453125 C 150.054688 159.628906 150.769531 158.917969 151.304688 158.917969 C 152.199219 158.738281 152.914062 158.917969 153.808594 158.917969 C 153.273438 156.238281 155.953125 157.667969 156.847656 157.488281 C 159.886719 156.59375 163.285156 156.058594 166.503906 155.878906 C 173.65625 155.34375 180.449219 153.023438 187.421875 152.667969 C 191.535156 152.308594 195.644531 151.417969 199.757812 150.882812 C 200.113281 150.882812 201.722656 149.808594 201.007812 151.417969 C 206.371094 149.097656 212.273438 149.632812 217.992188 148.738281 C 217.992188 149.453125 217.992188 149.808594 217.816406 150.34375 C 218.171875 150.167969 218.707031 149.988281 218.707031 149.988281 C 218.171875 148.382812 219.246094 148.382812 220.316406 148.203125 C 223 148.023438 225.859375 147.847656 228.542969 147.667969 C 231.582031 147.488281 234.441406 147.132812 237.480469 146.953125 C 238.019531 146.953125 238.554688 147.132812 239.089844 147.308594 C 239.804688 147.667969 240.164062 147.667969 241.058594 147.132812 C 241.953125 146.417969 243.738281 146.597656 244.992188 146.597656 C 250.53125 146.417969 256.074219 146.238281 261.617188 146.238281 C 265.550781 146.238281 269.304688 146.597656 273.238281 146.773438 C 275.207031 146.953125 277.171875 147.132812 279.140625 147.132812 C 280.746094 147.132812 284.679688 150.34375 284.144531 151.59375 C 283.429688 153.203125 285.21875 154.453125 284.324219 155.878906 C 284.324219 155.878906 284.859375 156.238281 285.21875 156.417969 C 284.324219 157.488281 284.503906 158.023438 285.574219 161.59375 C 286.113281 163.378906 286.113281 165.523438 286.113281 167.488281 C 286.289062 168.199219 286.289062 168.914062 286.46875 169.808594 C 286.828125 171.59375 287.183594 173.378906 287.542969 175.34375 C 286.648438 175.519531 285.753906 175.519531 284.679688 175.699219 C 286.46875 177.128906 287.898438 178.914062 285.933594 181.59375 L 286.828125 181.59375 C 285.753906 183.554688 284.679688 185.699219 283.964844 187.304688 C 285.574219 188.914062 287.003906 190.519531 288.613281 191.949219 C 288.972656 192.304688 289.6875 192.839844 289.867188 192.664062 C 292.367188 191.414062 293.441406 193.734375 294.871094 194.625 C 295.945312 195.339844 298.449219 195.875 297.015625 198.375 C 297.015625 198.375 298.089844 199.269531 298.625 199.445312 C 299.699219 199.625 300.773438 199.445312 302.203125 199.269531 L 302.203125 216.230469 L 302.558594 216.230469 C 302.382812 216.589844 302.203125 217.125 302.203125 217.300781 C 303.273438 219.445312 302.558594 221.050781 300.234375 221.765625 C 300.058594 221.765625 299.878906 222.121094 299.699219 222.300781 C 299.699219 222.480469 299.699219 222.835938 299.878906 222.835938 L 300.773438 222.835938 L 302.917969 221.765625 L 303.273438 222.121094 C 302.917969 222.660156 302.558594 223.195312 302.203125 223.910156 C 302.738281 224.445312 303.273438 224.980469 304.167969 225.695312 C 303.8125 226.050781 303.273438 226.410156 303.097656 226.945312 C 302.917969 227.480469 301.664062 228.015625 303.097656 228.730469 C 303.453125 228.90625 303.453125 230.15625 303.632812 231.050781 C 300.949219 229.800781 301.128906 232.835938 299.519531 233.550781 C 299.339844 233.191406 298.984375 232.65625 298.625 231.941406 C 298.449219 232.65625 298.269531 233.191406 298.269531 233.371094 C 297.734375 233.371094 296.660156 233.191406 296.480469 233.371094 C 296.125 234.441406 295.585938 235.691406 295.945312 236.585938 C 296.125 237.300781 297.375 238.191406 298.269531 238.191406 C 300.773438 238.726562 303.273438 238.90625 305.777344 239.085938 C 307.207031 239.265625 308.636719 238.90625 310.070312 238.90625 C 312.035156 239.085938 313.824219 239.441406 315.789062 239.621094 C 316.503906 239.621094 317.398438 239.265625 318.113281 239.265625 C 320.082031 239.441406 322.226562 239.621094 324.191406 239.976562 C 324.550781 239.976562 324.90625 240.515625 325.085938 240.691406 C 326.339844 240.871094 327.589844 241.226562 328.664062 241.050781 C 331.164062 240.515625 332.417969 241.40625 334.027344 243.191406 C 334.5625 243.90625 336.527344 243.726562 337.601562 243.550781 C 340.460938 243.191406 339.570312 245.511719 340.285156 246.761719 C 340.640625 247.296875 340.640625 248.011719 340.640625 248.546875 C 341 249.976562 340.820312 251.226562 338.675781 251.941406 C 339.390625 252.65625 340.105469 253.011719 340.640625 253.726562 C 341 254.082031 341 254.621094 341 255.15625 C 341 255.867188 340.640625 256.761719 341 257.117188 C 342.25 258.191406 341.535156 258.90625 340.820312 259.441406 C 341.175781 260.332031 341.894531 261.046875 341.894531 261.761719 C 341.894531 263.011719 341 264.261719 342.429688 265.152344 L 342.429688 265.332031 C 340.460938 267.832031 342.964844 270.152344 342.429688 272.652344 C 342.429688 273.011719 342.429688 273.722656 342.785156 274.082031 C 343.859375 274.972656 343.324219 275.867188 342.964844 276.9375 C 342.25 278.546875 341.535156 280.152344 341 281.402344 C 339.925781 281.222656 338.675781 280.867188 337.421875 281.042969 C 336.171875 281.042969 335.097656 281.402344 333.847656 281.582031 C 334.203125 282.652344 335.8125 283.367188 334.027344 284.792969 C 333.488281 285.152344 333.847656 286.757812 334.027344 287.652344 C 334.203125 288.902344 334.742188 290.328125 334.5625 291.578125 C 334.5625 292.113281 333.3125 292.652344 332.417969 293.007812 C 330.808594 293.902344 328.125 293.542969 328.484375 296.578125 C 327.230469 296.757812 325.625 296.578125 327.230469 298.542969 C 327.949219 299.433594 326.515625 300.683594 324.550781 300.863281 C 322.40625 301.042969 320.257812 301.578125 318.113281 301.933594 C 316.148438 302.292969 314.179688 302.648438 312.214844 302.828125 C 311.679688 302.828125 310.960938 302.292969 310.246094 302.113281 C 309.710938 302.292969 308.816406 302.648438 307.921875 303.007812 C 307.386719 301.933594 307.03125 301.222656 306.851562 300.328125 C 306.671875 300.328125 306.492188 300.328125 306.492188 300.507812 L 306.492188 303.007812 C 305.0625 299.972656 303.097656 303.007812 301.664062 302.472656 C 302.023438 302.828125 302.203125 303.183594 302.558594 303.722656 C 301.664062 304.078125 300.949219 304.257812 300.234375 304.433594 L 300.234375 306.578125 C 298.984375 307.648438 298.089844 308.363281 297.195312 309.253906 C 297.910156 309.433594 298.625 309.792969 299.699219 310.148438 C 297.554688 310.683594 295.945312 311.933594 293.800781 311.398438 C 293.261719 311.21875 292.546875 311.933594 292.011719 312.292969 C 290.9375 313.542969 289.867188 314.433594 288.613281 313.183594 C 287.71875 314.789062 287.003906 316.21875 286.289062 317.648438 C 286.289062 316.933594 286.109375 316.398438 286.109375 315.683594 C 285.394531 315.863281 284.679688 315.863281 283.964844 316.039062 C 284.144531 317.113281 284.324219 317.648438 284.503906 318.539062 C 285.21875 318.183594 285.753906 317.828125 286.289062 317.46875 C 287.183594 319.613281 287.71875 319.789062 290.222656 318.539062 C 290.582031 319.253906 290.9375 319.96875 291.296875 320.863281 C 289.328125 321.21875 287.363281 321.574219 285.21875 322.113281 C 286.46875 323.71875 283.609375 326.039062 286.46875 326.574219 C 285.753906 327.289062 285.21875 328.359375 284.324219 328.894531 C 283.070312 329.609375 281.640625 329.789062 280.210938 330.144531 C 278.246094 330.503906 276.097656 330.859375 274.132812 331.039062 C 271.449219 331.21875 268.769531 331.394531 266.265625 331.574219 C 264.300781 331.753906 262.511719 332.289062 260.722656 332.46875 C 259.292969 332.644531 257.683594 332.289062 256.253906 332.46875 C 253.929688 332.824219 251.785156 333.71875 249.460938 334.253906 C 248.921875 334.429688 248.207031 334.429688 247.671875 334.429688 C 246.777344 334.429688 245.882812 333.539062 245.347656 334.96875 C 243.203125 333.539062 241.414062 336.929688 239.269531 335.324219 C 239.089844 335.144531 238.554688 335.679688 238.195312 335.859375 L 237.125 336.394531 C 232.117188 337.289062 227.113281 338.003906 222.105469 338.714844 C 219.601562 339.074219 217.101562 339.074219 214.597656 339.253906 C 212.988281 339.429688 211.378906 339.964844 209.769531 340.144531 C 208.695312 340.324219 207.625 340.144531 206.195312 339.964844 C 205.65625 341.394531 204.761719 341.214844 203.871094 339.964844 C 202.082031 340.859375 200.292969 341.753906 198.148438 341.214844 C 197.433594 341.039062 196.359375 341.574219 195.464844 341.574219 C 194.75 341.574219 194.035156 341.394531 193.320312 341.039062 C 192.605469 340.679688 191.710938 339.609375 191.535156 341.574219 C 191.535156 341.753906 189.746094 341.929688 188.671875 342.109375 C 186.527344 342.464844 184.203125 342.644531 181.878906 343 C 182.238281 342.289062 182.414062 341.753906 182.59375 341.214844 L 182.414062 341.039062 L 179.734375 343.179688 C 178.304688 344.429688 176.515625 344.25 174.726562 344.25 C 173.117188 344.25 171.332031 344.074219 170.078125 344.609375 C 168.648438 345.144531 168.828125 345.5 167.933594 344.25 C 167.21875 345.679688 164 346.394531 163.105469 345.5 C 163.644531 345.144531 164.179688 344.964844 164.714844 344.609375 C 164.535156 344.429688 164.535156 344.25 164.359375 344.074219 C 164 344.25 163.820312 344.429688 163.464844 344.609375 C 161.320312 345.859375 158.996094 345.5 156.847656 345.679688 C 155.0625 345.859375 153.273438 345.144531 151.304688 344.789062 L 151.304688 343.179688 C 151.304688 340.859375 150.054688 339.609375 147.910156 339.429688 C 147.195312 339.429688 145.941406 339.609375 146.121094 337.824219 C 146.300781 336.574219 144.511719 335.859375 142.902344 336.21875 C 141.652344 336.574219 140.222656 336.394531 138.96875 336.394531 C 138.792969 336.21875 138.433594 336.039062 138.078125 336.039062 C 136.644531 336.21875 135.394531 336.574219 133.964844 336.574219 C 131.105469 336.929688 128.421875 337.109375 125.5625 337.46875 C 124.847656 337.46875 124.132812 337.289062 123.058594 337.289062 C 123.773438 336.753906 124.308594 336.394531 124.847656 336.039062 C 120.199219 336.929688 118.765625 334.074219 117.875 330.683594 C 118.050781 330.683594 118.410156 330.503906 118.765625 330.503906 C 115.011719 329.96875 114.65625 326.933594 113.761719 324.074219 C 113.226562 323.898438 112.152344 323.539062 111.4375 323.183594 C 111.792969 322.648438 112.332031 321.933594 112.6875 321.398438 C 111.972656 321.21875 111.078125 320.863281 110.363281 320.863281 C 107.863281 321.21875 105.714844 320.863281 104.105469 318.71875 C 106.429688 319.074219 108.578125 319.433594 110.902344 319.789062 C 111.257812 318.539062 111.4375 317.828125 111.617188 316.933594 C 110.007812 318.003906 110.007812 318.003906 108.753906 316.933594 C 108.21875 316.578125 107.683594 316.21875 107.324219 316.039062 C 106.253906 317.828125 104.464844 316.398438 102.855469 317.113281 C 103.390625 317.828125 103.75 318.363281 104.105469 318.898438 C 103.214844 318.363281 101.425781 319.613281 101.78125 317.46875 C 100.351562 317.828125 98.921875 318.183594 97.671875 318.71875 C 96.957031 319.074219 96.597656 319.96875 96.0625 320.683594 L 96.0625 319.613281 C 95.703125 319.613281 95.347656 319.613281 95.167969 319.789062 C 93.023438 320.863281 90.699219 322.113281 88.550781 323.183594 C 88.015625 322.46875 87.835938 321.933594 87.660156 321.933594 C 86.40625 322.648438 85.15625 323.71875 84.082031 323.539062 C 83.011719 323.539062 81.757812 322.289062 80.6875 321.753906 C 80.6875 322.648438 80.507812 323.539062 80.507812 324.433594 C 78.363281 322.648438 78.003906 322.824219 76.753906 326.039062 C 78.003906 326.039062 79.253906 325.859375 80.6875 325.859375 L 80.6875 324.609375 C 81.222656 325.148438 81.757812 325.503906 82.296875 326.039062 C 82.296875 326.398438 82.117188 327.289062 82.117188 327.289062 C 80.328125 327.289062 78.898438 329.609375 76.753906 328.183594 C 76.394531 328.003906 75.679688 328.539062 75.144531 328.539062 L 74.070312 328.539062 C 69.242188 330.683594 64.058594 330.859375 58.875 332.109375 C 58.695312 330.144531 57.621094 330.324219 56.191406 330.683594 C 55.835938 330.859375 55.121094 330.324219 54.582031 330.324219 C 54.941406 330.324219 55.296875 330.144531 55.476562 330.144531 C 55.835938 329.433594 56.191406 328.539062 56.371094 328.003906 C 55.835938 327.824219 55.121094 327.289062 54.40625 327.289062 C 53.867188 327.289062 53.332031 327.824219 52.796875 328.003906 C 53.152344 327.46875 52.972656 327.824219 52.796875 328.003906 Z M 239.804688 331.574219 C 237.480469 331.933594 235.515625 332.289062 233.371094 332.644531 L 233.371094 333.539062 C 234.441406 333.71875 235.695312 334.074219 236.765625 333.894531 C 237.839844 333.894531 239.449219 333.894531 239.804688 331.574219 Z M 76.214844 326.21875 C 75.324219 325.148438 74.964844 324.074219 73.714844 325.148438 C 73.175781 325.683594 72.28125 325.683594 71.566406 326.039062 C 71.210938 326.21875 70.851562 326.398438 70.496094 326.753906 L 70.675781 327.289062 C 71.03125 327.289062 71.390625 327.109375 71.925781 326.933594 C 72.460938 326.753906 73 326.753906 73.535156 326.753906 C 74.070312 326.574219 74.964844 326.398438 76.214844 326.21875 Z M 137.003906 331.753906 C 137.898438 332.824219 138.613281 333.71875 139.328125 334.609375 C 139.683594 333.71875 140.222656 332.824219 140.402344 332.109375 C 139.328125 331.753906 138.253906 331.753906 137.003906 331.753906 Z M 81.578125 316.21875 C 80.507812 319.074219 81.222656 320.148438 83.1875 319.96875 C 82.652344 318.898438 82.117188 317.828125 81.578125 316.21875 Z M 81.578125 316.21875 " fill-opacity="1" fill-rule="nonzero"/></g><path fill="#ff0084" d="M 82.652344 325.324219 C 82.472656 324.96875 82.472656 324.609375 82.296875 323.898438 C 84.261719 325.324219 85.691406 323.898438 87.300781 323.539062 C 88.910156 323.183594 90.699219 323.898438 92.308594 324.074219 L 92.308594 323.898438 C 91.949219 325.683594 90.519531 325.148438 89.269531 325.324219 C 88.195312 325.503906 86.765625 325.148438 86.050781 325.683594 C 84.441406 327.109375 83.546875 326.398438 82.652344 325.324219 Z M 82.652344 325.324219 " fill-opacity="1" fill-rule="nonzero"/><path fill="#ff0084" d="M 92.308594 324.074219 C 92.84375 323.71875 93.378906 323.003906 94.09375 322.46875 C 94.808594 321.933594 95.523438 321.574219 96.242188 321.039062 C 96.417969 321.21875 96.597656 321.574219 96.957031 321.753906 L 99.101562 322.289062 C 96.597656 322.824219 94.453125 323.359375 92.308594 324.074219 Z M 92.308594 324.074219 " fill-opacity="1" fill-rule="nonzero"/><path fill="#ff0084" d="M 52.796875 328.003906 C 52.972656 327.824219 53.152344 327.46875 53.332031 327.289062 C 55.476562 326.398438 54.941406 328.71875 56.011719 329.433594 C 55.65625 329.433594 55.296875 329.609375 55.121094 329.609375 C 54.582031 329.789062 53.6875 330.144531 53.332031 329.96875 C 52.972656 329.433594 52.972656 328.71875 52.796875 328.003906 Z M 52.796875 328.003906 " fill-opacity="1" fill-rule="nonzero"/><path fill="#ff0084" d="M 98.921875 322.289062 C 98.566406 320.503906 100.351562 320.683594 101.066406 320.324219 C 101.605469 320.148438 102.496094 320.503906 103.570312 320.683594 C 101.960938 322.46875 100.53125 323.003906 98.921875 322.289062 Z M 98.921875 322.289062 " fill-opacity="1" fill-rule="nonzero"/><g clip-path="url(#48f41ee347)"><path stroke-linecap="butt" transform="matrix(0.609387, 0, 0, 0.610687, 116.876958, 33.852965)" fill="none" stroke-linejoin="miter" d="M 21.675853 387.400555 C 26.201406 390.630778 38.765265 383.690596 71.50822 294.517259 C 104.642193 195.295051 96.347482 196.401642 96.700039 193.292953 " stroke="#000000" stroke-width="7.581" stroke-opacity="1" stroke-miterlimit="4"/></g><g clip-path="url(#63f86ec2f3)"><path stroke-linecap="butt" transform="matrix(0.609387, 0, 0, 0.610687, 116.876958, 33.852965)" fill="none" stroke-linejoin="miter" d="M 9.336349 385.212959 C 3.772354 385.053047 -3.580067 376.481763 20.868176 279.690217 C 41.598544 212.450412 54.931618 183.986073 63.501965 179.041594 " stroke="#000000" stroke-width="7.581" stroke-opacity="1" stroke-miterlimit="4"/></g><path stroke-linecap="butt" transform="matrix(0.609387, 0, 0, 0.610687, 116.876958, 33.852965)" fill="none" stroke-linejoin="miter" d="M 61.098166 188.169372 C 50.444526 185.48285 55.213664 168.365867 65.610899 168.928758 " stroke="#000000" stroke-width="7.581" stroke-opacity="1" stroke-miterlimit="4"/><path stroke-linecap="butt" transform="matrix(0.609387, 0, 0, 0.610687, 116.876958, 33.852965)" fill-opacity="1" fill="#009ae7" fill-rule="evenodd" stroke-linejoin="miter" d="M 62.694288 183.180117 C 40.284467 218.264813 6.221025 327.363188 7.727406 380.268479 C 7.124853 382.564816 23.900169 387.477313 24.816818 385.782246 C 55.252125 342.804292 90.616824 235.57369 95.661598 193.599984 C 79.386272 182.924257 62.694288 183.17372 62.694288 183.17372 Z M 62.694288 183.180117 " stroke="#000000" stroke-width="0.758" stroke-opacity="1" stroke-miterlimit="4"/><path stroke-linecap="butt" transform="matrix(0.609387, 0, 0, 0.610687, 116.876958, 33.852965)" fill="none" stroke-linejoin="miter" d="M 95.725699 198.467706 C 102.725564 199.555107 110.430542 190.344175 101.757634 179.834757 " stroke="#000000" stroke-width="7.581" stroke-opacity="1" stroke-miterlimit="4"/><g clip-path="url(#2e5064a3d8)"><path stroke-linecap="butt" transform="matrix(0.609387, 0, 0, 0.610687, 116.876958, 33.852965)" fill="none" stroke-linejoin="miter" d="M 60.643046 170.617429 C 61.059705 139.907925 81.059317 89.292573 83.770803 81.226611 C 86.482289 73.154253 118.045779 -2.100343 138.737686 4.161812 C 159.423182 10.423967 154.49379 53.357145 134.680072 113.701544 C 114.866354 174.045942 103.50119 184.114003 103.50119 184.114003 " stroke="#000000" stroke-width="7.581" stroke-opacity="1" stroke-miterlimit="4"/></g><path stroke-linecap="butt" transform="matrix(0.609387, 0, 0, 0.610687, 116.876958, 33.852965)" fill-opacity="1" fill="#009ae7" fill-rule="evenodd" stroke-linejoin="miter" d="M 138.327437 8.031683 C 111.654878 0.285545 65.117318 124.262133 64.251951 170.489499 C 62.630187 176.905169 73.027421 176.188763 83.681061 178.932854 C 94.635977 181.785684 100.373045 188.393248 101.853786 182.508486 C 128.808391 137.637174 166.512788 17.095496 138.327437 8.025286 Z M 138.327437 8.031683 " stroke="#000000" stroke-width="0.758" stroke-opacity="1" stroke-miterlimit="4"/><path stroke-linecap="butt" transform="matrix(0.609387, 0, 0, 0.610687, 116.876958, 33.852965)" fill-opacity="1" fill="#fae472" fill-rule="evenodd" stroke-linejoin="miter" d="M 59.341789 177.839055 C 56.322617 187.900719 67.59804 184.548964 78.867052 187.721618 C 90.142474 190.894272 99.007687 198.448516 101.424307 191.258872 C 103.834516 184.069228 92.424481 175.421186 83.251582 173.566206 C 74.072273 171.717623 61.80328 169.440476 59.341789 177.839055 Z M 59.341789 177.839055 " stroke="#000000" stroke-width="3.79" stroke-opacity="1" stroke-miterlimit="4"/><path fill="#ffffff" d="M 127.046875 257.339844 C 135.582031 205.9375 147.773438 173.765625 152.59375 161.890625 C 157.003906 149.476562 146.167969 194.78125 143.949219 201.394531 Z M 127.046875 257.339844 " fill-opacity="0.5412" fill-rule="evenodd"/><path fill="#ffffff" d="M 161.871094 136.148438 C 168.148438 98.492188 180.589844 69.667969 184.167969 64.914062 C 187.75 60.15625 182.34375 82.195312 182.34375 82.195312 L 161.871094 136.152344 Z M 161.871094 136.148438 " fill-opacity="0.5412" fill-rule="evenodd"/><path fill="#ffffff" d="M 299.664062 194.75 C 298.082031 194.621094 296.472656 194.675781 294.886719 194.660156 C 282.648438 194.441406 270.433594 194.453125 258.191406 194.746094 C 234.300781 195.421875 209.929688 195.972656 186.410156 200.589844 C 185.601562 200.777344 180.628906 201.382812 180.195312 202.511719 C 179.941406 203.160156 181.667969 201.871094 181.804688 201.1875 C 181.953125 200.429688 180.257812 198.960938 181.027344 199.003906 C 188.695312 199.433594 196.953125 201.910156 204.605469 202.964844 C 241.394531 207.863281 278.8125 210.097656 315.320312 216.800781 C 358.144531 226.695312 295.472656 235.515625 287.035156 236.261719 C 259.992188 238.308594 231.539062 236.910156 204.863281 242.183594 C 204.4375 242.316406 204.902344 238.734375 208.4375 240.472656 C 215.398438 243.902344 222.617188 246.835938 229.714844 249.980469 C 235.417969 252.542969 257.917969 259.574219 255.234375 268.769531 C 249.351562 276.183594 234.183594 275.359375 225.695312 275.804688 C 214.921875 276.269531 204.148438 276.300781 193.367188 276.359375 C 188.816406 276.398438 184.246094 276.40625 179.71875 276.925781 C 176.042969 277.375 172.394531 277.730469 168.695312 277.945312 C 164.757812 278.171875 160.820312 278.496094 156.894531 278.898438 C 153.460938 279.304688 150.046875 279.816406 146.59375 280.058594 C 143.855469 280.222656 141.125 280.457031 138.382812 280.5625 C 135.886719 280.640625 133.394531 280.621094 130.898438 280.585938 C 128.808594 280.554688 126.71875 280.488281 124.632812 280.71875 L 123.058594 274.269531 C 125.746094 274.015625 128.421875 274.027344 131.117188 274.0625 C 133.34375 274.09375 135.570312 274.113281 137.796875 274.050781 C 140.378906 273.960938 142.953125 273.746094 145.53125 273.609375 C 148.816406 273.398438 152.066406 272.886719 155.335938 272.527344 C 159.46875 272.128906 163.609375 271.796875 167.753906 271.542969 C 171.199219 271.332031 174.589844 270.949219 178.015625 270.546875 C 183.132812 270.011719 188.285156 270.074219 193.421875 270.117188 C 203.910156 270.242188 214.390625 270.347656 224.871094 269.839844 C 230.441406 269.503906 236.105469 269.160156 241.578125 267.996094 C 241.980469 267.90625 245.53125 266.726562 245.601562 267.070312 C 246.601562 268.945312 242.675781 263.917969 240.878906 262.792969 C 235.75 259.582031 230.1875 257.089844 224.699219 254.582031 C 221.6875 253.246094 181.011719 239.8125 202.699219 236.25 C 230.273438 233.199219 258.242188 233.9375 285.902344 231.492188 C 290.960938 230.957031 335.65625 228.546875 312.769531 221.863281 C 277.058594 213.671875 239.527344 211.652344 203.160156 207.863281 C 196.316406 207.15625 148.675781 201.328125 184.007812 194.988281 C 208.347656 191.21875 233.179688 190.460938 257.75 189.386719 C 270.128906 188.859375 282.5 188.410156 294.890625 188.191406 C 296.472656 188.171875 298.082031 188.230469 299.664062 188.097656 Z M 299.664062 194.75 " fill-opacity="0.749" fill-rule="nonzero"/><path fill="#929292" d="M 122.164062 268.171875 C 119.792969 282.042969 123.402344 283.917969 130.8125 270.824219 C 127.472656 270.550781 123.425781 268.90625 122.164062 268.171875 Z M 122.164062 268.171875 " fill-opacity="1" fill-rule="evenodd"/><g clip-path="url(#c1db7da3fd)"><path stroke-linecap="butt" transform="matrix(0.609387, 0, 0, 0.610687, 116.876958, 33.852965)" fill="none" stroke-linejoin="miter" d="M 8.676105 383.696993 C 4.785155 406.410896 10.708117 409.481207 22.868138 388.040203 C 17.387475 387.59245 10.746578 384.899531 8.676105 383.696993 Z M 8.676105 383.696993 " stroke="#000000" stroke-width="4.624" stroke-opacity="1" stroke-miterlimit="4"/></g></svg>