<svg xmlns="http://www.w3.org/2000/svg" xmlns:xlink="http://www.w3.org/1999/xlink" width="500" zoomAndPan="magnify" viewBox="0 0 375 374.999991" height="500" preserveAspectRatio="xMidYMid meet" version="1.0"><defs><g/><clipPath id="1ff607ed5e"><path d="M 13.378906 63.082031 L 361.378906 63.082031 L 361.378906 312.082031 L 13.378906 312.082031 Z M 13.378906 63.082031 " clip-rule="nonzero"/></clipPath><clipPath id="8cb4c489a3"><path d="M 43.40625 120.117188 L 337.40625 120.117188 L 337.40625 255.117188 L 43.40625 255.117188 Z M 43.40625 120.117188 " clip-rule="nonzero"/></clipPath></defs><rect x="-37.5" width="450" fill="#ffffff" y="-37.499999" height="449.999989" fill-opacity="1"/><rect x="-37.5" width="450" fill="#ffffff" y="-37.499999" height="449.999989" fill-opacity="1"/><rect x="-37.5" width="450" fill="#11c2cb" y="-37.499999" height="449.999989" fill-opacity="1"/><g clip-path="url(#1ff607ed5e)"><path fill="#ffffff" d="M 341.414062 63.082031 C 339.203125 63.082031 336.992188 63.082031 334.78125 63.082031 L 35.273438 63.082031 C 25.605469 63.082031 16.488281 68.613281 14.277344 78.574219 C 13.722656 82.726562 13.449219 86.875 13.722656 91.023438 L 13.722656 284.414062 C 13.449219 289.117188 13.722656 293.820312 14.828125 298.246094 C 17.867188 307.378906 26.433594 312.082031 35.550781 312.082031 L 341.414062 312.082031 C 341.964844 312.082031 342.519531 311.804688 343.070312 311.527344 C 354.125 310.421875 361.308594 301.292969 361.308594 289.949219 L 361.308594 84.660156 C 361.308594 73.042969 353.292969 63.359375 341.414062 63.082031 Z M 20.632812 83 C 20.90625 74.425781 27.539062 69.722656 35.550781 69.722656 L 312.679688 69.722656 C 322.074219 69.722656 331.742188 69.445312 341.136719 69.722656 C 349.425781 69.996094 354.675781 76.359375 354.675781 84.382812 L 354.675781 108.453125 L 59.035156 108.453125 C 46.050781 108.453125 33.339844 107.902344 20.632812 108.453125 C 20.355469 100.15625 20.355469 91.578125 20.632812 83 Z M 354.398438 291.609375 C 354.398438 298.800781 348.597656 304.609375 341.136719 304.886719 C 340.859375 304.886719 340.585938 304.886719 340.585938 304.886719 L 36.933594 304.886719 C 31.128906 304.886719 25.328125 304.058594 22.289062 298.246094 C 20.078125 294.097656 20.632812 289.394531 20.632812 284.691406 L 20.632812 118.414062 C 20.632812 117.585938 20.632812 116.476562 20.632812 115.648438 L 315.992188 115.648438 C 328.980469 115.648438 341.691406 116.203125 354.398438 115.648438 L 354.398438 288.839844 C 354.398438 289.671875 354.398438 290.777344 354.398438 291.609375 Z M 354.398438 291.609375 " fill-opacity="1" fill-rule="nonzero"/></g><path fill="#ffffff" d="M 43.839844 92.40625 C 43.839844 92.132812 43.5625 92.132812 43.839844 92.40625 Z M 43.839844 92.40625 " fill-opacity="1" fill-rule="nonzero"/><path fill="#ffffff" d="M 57.378906 98.769531 C 59.3125 96.558594 60.140625 94.066406 60.140625 91.023438 C 60.140625 90.472656 60.140625 90.195312 60.140625 89.640625 C 59.589844 85.214844 56.550781 81.617188 52.40625 79.957031 C 47.984375 78.296875 42.734375 79.679688 39.695312 83.277344 C 35.550781 88.257812 36.105469 95.453125 40.800781 99.878906 C 45.773438 104.027344 52.957031 103.476562 57.378906 98.769531 Z M 53.234375 90.195312 C 53.234375 90.195312 53.234375 90.472656 53.234375 90.195312 C 53.234375 90.472656 53.234375 90.472656 53.234375 90.472656 C 53.234375 90.472656 53.234375 90.472656 53.234375 90.195312 Z M 43.5625 90.195312 C 43.5625 89.917969 43.5625 89.917969 43.5625 89.640625 C 43.5625 89.363281 43.839844 89.089844 43.839844 88.535156 L 44.117188 87.980469 L 44.394531 87.429688 C 44.667969 87.152344 44.945312 86.875 45.222656 86.597656 L 45.496094 86.597656 C 45.222656 86.875 45.496094 86.597656 45.773438 86.597656 C 46.050781 86.320312 46.601562 86.320312 46.878906 86.042969 C 46.878906 86.042969 46.050781 86.320312 46.601562 86.042969 L 47.15625 85.769531 L 47.707031 85.769531 C 47.707031 85.769531 47.707031 85.769531 47.984375 85.769531 C 47.984375 85.769531 48.261719 85.769531 48.261719 85.769531 L 49.089844 85.769531 L 50.472656 86.042969 C 51.023438 86.320312 51.023438 86.320312 51.023438 86.320312 L 51.578125 86.875 C 51.300781 86.597656 51.023438 86.597656 51.300781 86.875 L 52.128906 87.703125 C 52.128906 87.980469 52.40625 87.980469 52.40625 88.257812 L 52.683594 88.8125 C 52.683594 89.089844 52.683594 89.363281 52.957031 89.363281 C 52.957031 89.640625 52.683594 89.917969 52.683594 90.195312 C 52.683594 90.472656 52.683594 90.472656 52.683594 90.746094 C 52.683594 91.023438 52.40625 91.578125 52.40625 91.855469 C 52.40625 91.855469 52.40625 92.132812 52.40625 92.132812 C 52.40625 92.132812 52.40625 92.132812 52.40625 92.40625 C 52.128906 92.683594 51.851562 93.238281 51.851562 93.515625 C 51.851562 93.515625 51.578125 93.792969 51.578125 93.792969 C 51.578125 93.792969 51.300781 94.066406 51.300781 94.066406 L 51.023438 94.066406 C 50.746094 94.34375 50.746094 94.34375 51.023438 94.066406 C 50.746094 94.34375 50.472656 94.34375 50.472656 94.621094 L 50.195312 94.898438 L 48.8125 95.453125 C 48.539062 95.453125 48.539062 95.453125 48.261719 95.453125 L 47.15625 95.453125 C 46.878906 95.453125 46.601562 95.453125 46.601562 95.175781 L 46.050781 94.898438 C 45.496094 94.621094 46.328125 94.898438 46.328125 94.898438 C 46.328125 94.898438 45.496094 94.34375 45.496094 94.34375 L 44.945312 94.066406 C 44.945312 94.066406 44.117188 93.238281 44.117188 93.238281 L 43.839844 92.960938 L 43.839844 92.40625 C 43.839844 92.40625 43.839844 92.683594 43.839844 92.683594 C 43.839844 92.683594 43.5625 91.855469 43.5625 91.578125 Z M 43.5625 90.195312 " fill-opacity="1" fill-rule="nonzero"/><path fill="#ffffff" d="M 85.007812 98.21875 C 86.667969 96.28125 87.496094 93.792969 87.773438 91.300781 C 87.773438 91.023438 87.773438 91.023438 87.773438 90.746094 C 87.773438 90.746094 87.773438 90.472656 87.773438 90.472656 C 87.773438 85.492188 84.730469 81.066406 80.035156 79.40625 C 75.613281 77.746094 70.363281 79.128906 67.324219 82.726562 C 63.179688 87.703125 63.734375 94.898438 68.429688 99.324219 C 73.402344 103.75 80.585938 103.199219 85.007812 98.21875 Z M 71.46875 90.195312 C 71.46875 89.917969 71.46875 89.917969 71.46875 89.640625 C 71.46875 89.363281 71.746094 89.089844 71.746094 88.535156 L 72.023438 87.980469 L 72.300781 87.429688 C 72.574219 87.152344 72.851562 86.875 73.128906 86.597656 L 73.402344 86.597656 C 73.402344 86.597656 73.402344 86.597656 73.679688 86.597656 C 73.957031 86.320312 74.507812 86.320312 74.785156 86.042969 C 74.785156 86.042969 73.957031 86.320312 74.507812 86.042969 L 75.0625 85.769531 L 75.613281 85.769531 C 75.613281 85.769531 75.613281 85.769531 75.890625 85.769531 C 75.890625 85.769531 76.167969 85.769531 76.167969 85.769531 L 76.71875 85.769531 L 78.101562 86.042969 C 78.652344 86.320312 78.652344 86.320312 78.652344 86.320312 C 78.652344 86.320312 78.929688 86.320312 78.929688 86.597656 C 78.929688 86.597656 78.929688 86.597656 79.207031 86.875 L 80.035156 87.703125 C 80.035156 87.980469 80.3125 87.980469 80.3125 88.257812 L 80.585938 88.8125 C 80.863281 89.363281 80.863281 89.640625 80.863281 89.917969 C 80.863281 89.917969 80.863281 89.917969 80.863281 90.195312 C 80.863281 90.195312 80.863281 90.195312 80.863281 90.472656 C 80.863281 90.746094 80.863281 90.746094 80.863281 91.023438 C 80.863281 91.300781 80.585938 91.855469 80.585938 92.132812 C 80.585938 92.132812 80.585938 92.40625 80.585938 92.40625 C 80.585938 92.40625 80.585938 92.40625 80.585938 92.683594 L 80.035156 93.792969 C 80.035156 93.792969 79.757812 94.066406 79.757812 94.066406 L 79.484375 94.34375 C 79.207031 94.621094 79.207031 94.621094 79.484375 94.34375 C 79.207031 94.621094 78.929688 94.621094 78.929688 94.898438 L 78.652344 95.175781 L 76.996094 95.453125 C 76.71875 95.453125 76.71875 95.453125 76.441406 95.453125 L 74.507812 95.453125 L 73.957031 95.175781 C 73.402344 94.898438 74.234375 95.175781 74.234375 95.175781 C 74.234375 95.175781 73.402344 94.621094 73.402344 94.621094 C 73.402344 94.621094 73.128906 94.34375 72.851562 94.34375 C 72.851562 94.34375 72.023438 93.515625 72.023438 93.515625 L 71.746094 93.238281 L 72.023438 92.960938 L 72.023438 92.683594 C 72.023438 92.40625 71.746094 92.40625 72.023438 92.683594 C 72.023438 92.40625 71.746094 92.132812 71.746094 91.855469 C 71.746094 91.855469 71.746094 91.578125 71.746094 91.300781 C 71.46875 91.023438 71.46875 90.472656 71.46875 90.195312 Z M 71.46875 90.195312 " fill-opacity="1" fill-rule="nonzero"/><path fill="#ffffff" d="M 71.46875 90.195312 C 71.746094 89.363281 71.46875 89.917969 71.46875 90.195312 Z M 71.46875 90.195312 " fill-opacity="1" fill-rule="nonzero"/><path fill="#ffffff" d="M 113.46875 98.769531 C 115.402344 96.558594 116.230469 94.066406 116.230469 91.023438 C 116.230469 90.472656 116.230469 90.195312 116.230469 89.640625 C 115.402344 85.214844 112.636719 81.617188 108.492188 79.957031 C 104.074219 78.296875 98.824219 79.679688 95.785156 83.277344 C 91.640625 88.257812 92.191406 95.453125 96.890625 99.878906 C 101.585938 104.304688 109.046875 103.476562 113.46875 98.769531 Z M 109.324219 90.195312 C 109.324219 90.195312 109.324219 90.472656 109.324219 90.195312 C 109.324219 90.472656 109.324219 90.472656 109.324219 90.472656 C 109.324219 90.472656 109.324219 90.472656 109.324219 90.195312 Z M 99.652344 90.195312 C 99.652344 90.195312 99.652344 89.917969 99.652344 89.640625 C 99.652344 89.363281 99.929688 88.8125 99.929688 88.535156 L 100.203125 87.980469 L 100.480469 87.429688 C 100.757812 87.152344 101.035156 86.875 101.308594 86.597656 L 101.585938 86.597656 C 101.308594 86.875 101.585938 86.597656 101.863281 86.597656 C 102.140625 86.320312 102.691406 86.320312 102.96875 86.042969 C 102.96875 86.042969 102.140625 86.320312 102.691406 86.042969 L 103.246094 85.769531 L 103.796875 85.769531 C 103.796875 85.769531 103.796875 85.769531 104.074219 85.769531 C 104.074219 85.769531 104.347656 85.769531 104.347656 85.769531 L 105.453125 85.769531 L 106.835938 86.042969 C 107.390625 86.320312 107.390625 86.320312 107.390625 86.320312 L 107.664062 86.597656 C 107.664062 86.597656 107.664062 86.597656 107.941406 86.875 L 108.769531 87.703125 C 108.769531 87.980469 109.046875 87.980469 109.046875 88.257812 C 109.046875 88.535156 109.324219 88.535156 109.324219 88.8125 C 109.324219 89.089844 109.597656 89.363281 109.597656 89.640625 C 109.597656 89.917969 109.324219 90.195312 109.324219 90.472656 C 109.324219 90.746094 109.324219 90.746094 109.324219 91.023438 C 109.324219 91.300781 109.046875 91.855469 109.046875 92.132812 C 109.046875 92.132812 109.046875 92.132812 109.046875 92.40625 C 108.769531 92.683594 108.492188 93.238281 108.492188 93.515625 C 108.492188 93.515625 108.21875 93.792969 108.21875 93.792969 C 108.21875 93.792969 107.941406 94.066406 107.941406 94.066406 C 107.664062 94.34375 107.664062 94.34375 107.941406 94.066406 C 107.664062 94.34375 107.390625 94.34375 107.390625 94.621094 L 107.113281 94.898438 L 104.902344 95.453125 C 104.625 95.453125 104.625 95.453125 104.347656 95.453125 L 103.246094 95.453125 L 102.691406 95.175781 L 102.140625 94.898438 C 101.585938 94.898438 102.414062 94.898438 102.414062 94.898438 C 102.414062 94.898438 101.585938 94.34375 101.585938 94.34375 L 101.035156 94.066406 C 101.035156 94.066406 100.480469 93.515625 100.203125 93.238281 L 99.929688 92.683594 L 100.203125 92.40625 C 100.203125 92.132812 99.929688 91.578125 99.929688 91.300781 L 99.929688 90.746094 C 99.652344 90.746094 99.652344 90.472656 99.652344 90.195312 Z M 99.652344 90.195312 " fill-opacity="1" fill-rule="nonzero"/><path fill="#ffffff" d="M 104.902344 95.453125 C 104.902344 95.175781 104.347656 95.453125 104.902344 95.453125 Z M 104.902344 95.453125 " fill-opacity="1" fill-rule="nonzero"/><path fill="#ffffff" d="M 99.652344 90.195312 C 99.929688 89.363281 99.652344 89.917969 99.652344 90.195312 Z M 99.652344 90.195312 " fill-opacity="1" fill-rule="nonzero"/><path fill="#ffffff" d="M 228.132812 174.578125 C 225.367188 171.257812 220.394531 176.238281 223.15625 179.558594 L 249.957031 210.269531 L 223.15625 240.976562 C 220.117188 244.296875 225.09375 249.277344 228.132812 245.957031 L 257.140625 212.757812 C 258.523438 211.375 258.523438 209.160156 257.140625 207.777344 Z M 228.132812 174.578125 " fill-opacity="1" fill-rule="nonzero"/><path fill="#ffffff" d="M 146.898438 174.578125 L 118.164062 207.777344 C 116.78125 209.160156 116.78125 211.375 118.164062 212.757812 L 146.898438 245.957031 C 149.9375 249.277344 154.636719 244.296875 151.871094 240.976562 L 125.070312 210.269531 L 151.871094 179.558594 C 154.910156 176.238281 149.9375 171.257812 146.898438 174.578125 Z M 146.898438 174.578125 " fill-opacity="1" fill-rule="nonzero"/><path fill="#ffffff" d="M 201.054688 175.132812 L 172.320312 233.230469 L 168.175781 241.53125 C 166.242188 245.40625 172.042969 249 174.253906 245.128906 L 203.265625 187.027344 L 207.410156 178.726562 C 208.789062 174.855469 202.988281 171.257812 201.054688 175.132812 Z M 201.054688 175.132812 " fill-opacity="1" fill-rule="nonzero"/><g clip-path="url(#8cb4c489a3)"><path fill="#11c2cb" d="M 43.410156 120.117188 L 337.402344 120.117188 L 337.402344 255.117188 L 43.410156 255.117188 L 43.410156 120.117188 " fill-opacity="1" fill-rule="nonzero"/></g><g fill="#ffffff" fill-opacity="1"><g transform="translate(23.496097, 212.725035)"><g><path d="M 17.328125 -5.859375 C 14.828125 -6.429688 12.335938 -7.003906 9.859375 -7.578125 C 7.378906 -8.160156 4.894531 -8.722656 2.40625 -9.265625 C 4.445312 -11.441406 6.488281 -13.472656 8.53125 -15.359375 C 10.582031 -17.242188 12.753906 -18.890625 15.046875 -20.296875 C 17.335938 -21.710938 19.773438 -22.828125 22.359375 -23.640625 C 24.953125 -24.453125 27.835938 -24.859375 31.015625 -24.859375 L 31.015625 -24.53125 C 31.015625 -24.332031 31.019531 -24.171875 31.03125 -24.046875 C 31.050781 -23.921875 31.0625 -23.8125 31.0625 -23.71875 C 31.0625 -23.550781 30.988281 -23.425781 30.84375 -23.34375 C 30.695312 -23.269531 30.507812 -23.207031 30.28125 -23.15625 C 30.0625 -23.113281 29.835938 -23.082031 29.609375 -23.0625 C 29.390625 -23.050781 29.203125 -23.046875 29.046875 -23.046875 L 28.703125 -23.046875 L 28.75 -22.515625 C 28.945312 -22.515625 29.226562 -22.472656 29.59375 -22.390625 C 29.957031 -22.304688 30.320312 -22.191406 30.6875 -22.046875 C 31.0625 -21.910156 31.375 -21.742188 31.625 -21.546875 C 31.882812 -21.359375 32.015625 -21.117188 32.015625 -20.828125 C 32.015625 -20.472656 31.6875 -20.148438 31.03125 -19.859375 C 30.375 -19.578125 29.613281 -19.332031 28.75 -19.125 C 27.882812 -18.914062 27.046875 -18.738281 26.234375 -18.59375 C 25.421875 -18.457031 24.867188 -18.335938 24.578125 -18.234375 C 22.660156 -17.628906 20.859375 -16.773438 19.171875 -15.671875 C 17.492188 -14.566406 15.820312 -13.457031 14.15625 -12.34375 C 15.4375 -11.988281 16.703125 -11.625 17.953125 -11.25 C 19.203125 -10.882812 20.453125 -10.523438 21.703125 -10.171875 C 21.921875 -10.109375 22.359375 -10.015625 23.015625 -9.890625 C 23.671875 -9.765625 24.34375 -9.613281 25.03125 -9.4375 C 25.71875 -9.257812 26.332031 -9.054688 26.875 -8.828125 C 27.425781 -8.609375 27.703125 -8.382812 27.703125 -8.15625 C 27.703125 -8.09375 27.664062 -8 27.59375 -7.875 C 25.195312 -8.507812 22.796875 -9.109375 20.390625 -9.671875 C 17.992188 -10.234375 15.597656 -10.863281 13.203125 -11.5625 L 13.15625 -11.515625 C 15.550781 -10.847656 17.929688 -10.21875 20.296875 -9.625 C 22.671875 -9.03125 25.054688 -8.363281 27.453125 -7.625 L 27.21875 -6.859375 C 27.632812 -6.796875 28.101562 -6.660156 28.625 -6.453125 C 29.15625 -6.242188 29.421875 -5.882812 29.421875 -5.375 C 29.421875 -4.988281 29.179688 -4.691406 28.703125 -4.484375 C 28.222656 -4.273438 27.835938 -4.140625 27.546875 -4.078125 C 25.890625 -4.847656 24.164062 -5.503906 22.375 -6.046875 C 20.582031 -6.585938 18.765625 -7.066406 16.921875 -7.484375 C 15.078125 -7.898438 13.234375 -8.285156 11.390625 -8.640625 C 9.554688 -8.992188 7.742188 -9.363281 5.953125 -9.75 C 7.679688 -9.226562 9.425781 -8.757812 11.1875 -8.34375 C 12.945312 -7.9375 14.707031 -7.515625 16.46875 -7.078125 C 18.226562 -6.648438 19.96875 -6.1875 21.6875 -5.6875 C 23.414062 -5.1875 25.128906 -4.601562 26.828125 -3.9375 C 26.441406 -3.84375 26.039062 -3.796875 25.625 -3.796875 C 24.988281 -3.796875 24.359375 -3.863281 23.734375 -4 C 23.109375 -4.144531 22.484375 -4.3125 21.859375 -4.5 C 21.234375 -4.695312 20.617188 -4.90625 20.015625 -5.125 C 19.410156 -5.351562 18.785156 -5.550781 18.140625 -5.71875 L 17.71875 -6.28125 C 15.28125 -6.632812 12.882812 -7.144531 10.53125 -7.8125 C 8.1875 -8.488281 5.8125 -9.132812 3.40625 -9.75 C 4.945312 -11.25 6.5 -12.71875 8.0625 -14.15625 C 9.632812 -15.59375 11.25 -17.003906 12.90625 -18.390625 C 12.84375 -18.390625 12.8125 -18.453125 12.8125 -18.578125 C 10.925781 -17.234375 9.164062 -15.773438 7.53125 -14.203125 C 5.90625 -12.640625 4.304688 -11.039062 2.734375 -9.40625 C 5.203125 -8.832031 7.644531 -8.253906 10.0625 -7.671875 C 12.476562 -7.097656 14.898438 -6.492188 17.328125 -5.859375 Z M 4.84375 -9.984375 C 5.351562 -10.523438 5.851562 -11.066406 6.34375 -11.609375 C 6.625 -11.898438 6.894531 -12.191406 7.15625 -12.484375 C 6.863281 -12.191406 6.570312 -11.898438 6.28125 -11.609375 C 5.738281 -11.097656 5.195312 -10.570312 4.65625 -10.03125 Z M 4.84375 -9.984375 "/></g></g></g><g fill="#ffffff" fill-opacity="1"><g transform="translate(57.903706, 212.725035)"><g><path d="M 7.25 -4.46875 L 7.25 -5.953125 L 7.875 -6.34375 C 7.78125 -6.882812 7.710938 -7.414062 7.671875 -7.9375 C 7.640625 -8.46875 7.625 -9.003906 7.625 -9.546875 C 7.625 -10.160156 7.632812 -10.757812 7.65625 -11.34375 C 7.675781 -11.9375 7.6875 -12.554688 7.6875 -13.203125 C 7.6875 -13.867188 7.648438 -14.535156 7.578125 -15.203125 C 7.515625 -15.878906 7.40625 -16.554688 7.25 -17.234375 L 6.953125 -17.234375 C 6.992188 -15.535156 7.050781 -13.867188 7.125 -12.234375 C 7.207031 -10.609375 7.25 -8.945312 7.25 -7.25 C 7.09375 -9.675781 6.910156 -12.101562 6.703125 -14.53125 C 6.492188 -16.96875 6.390625 -19.4375 6.390625 -21.9375 C 6.390625 -22.675781 6.425781 -23.421875 6.5 -24.171875 C 6.582031 -24.921875 6.671875 -25.664062 6.765625 -26.40625 L 3.59375 -25.578125 L 3.640625 -25.734375 C 3.578125 -25.828125 3.488281 -26 3.375 -26.25 C 3.269531 -26.507812 3.21875 -26.671875 3.21875 -26.734375 C 3.21875 -26.890625 3.382812 -27.054688 3.71875 -27.234375 C 4.050781 -27.410156 4.429688 -27.5625 4.859375 -27.6875 C 5.296875 -27.820312 5.710938 -27.9375 6.109375 -28.03125 C 6.515625 -28.125 6.796875 -28.1875 6.953125 -28.21875 L 6.8125 -28.796875 C 6.5625 -28.734375 6.039062 -28.660156 5.25 -28.578125 C 4.46875 -28.503906 3.675781 -28.46875 2.875 -28.46875 C 2.238281 -28.46875 1.679688 -28.515625 1.203125 -28.609375 C 0.722656 -28.703125 0.484375 -28.910156 0.484375 -29.234375 C 0.484375 -29.585938 0.800781 -29.9375 1.4375 -30.28125 C 2.082031 -30.632812 2.90625 -30.960938 3.90625 -31.265625 C 4.914062 -31.578125 6.03125 -31.859375 7.25 -32.109375 C 8.46875 -32.367188 9.632812 -32.59375 10.75 -32.78125 C 11.875 -32.976562 12.882812 -33.125 13.78125 -33.21875 C 14.675781 -33.3125 15.296875 -33.359375 15.640625 -33.359375 C 17.273438 -33.359375 18.835938 -33.15625 20.328125 -32.75 C 21.816406 -32.351562 23.117188 -31.726562 24.234375 -30.875 C 25.359375 -30.03125 26.25 -28.953125 26.90625 -27.640625 C 27.5625 -26.335938 27.890625 -24.785156 27.890625 -22.984375 C 27.890625 -22.253906 27.773438 -21.492188 27.546875 -20.703125 C 27.328125 -19.921875 26.984375 -19.171875 26.515625 -18.453125 C 26.054688 -17.734375 25.460938 -17.082031 24.734375 -16.5 C 24.015625 -15.925781 23.160156 -15.515625 22.171875 -15.265625 C 23.835938 -15.035156 25.269531 -14.648438 26.46875 -14.109375 C 27.664062 -13.566406 28.640625 -12.910156 29.390625 -12.140625 C 30.148438 -11.367188 30.703125 -10.503906 31.046875 -9.546875 C 31.398438 -8.585938 31.578125 -7.566406 31.578125 -6.484375 C 31.578125 -5.078125 31.296875 -3.875 30.734375 -2.875 C 30.179688 -1.882812 29.441406 -1.050781 28.515625 -0.375 C 27.585938 0.289062 26.53125 0.804688 25.34375 1.171875 C 24.15625 1.546875 22.921875 1.828125 21.640625 2.015625 C 20.367188 2.203125 19.109375 2.320312 17.859375 2.375 C 16.609375 2.425781 15.472656 2.453125 14.453125 2.453125 C 14.191406 2.453125 13.703125 2.4375 12.984375 2.40625 C 12.265625 2.375 11.519531 2.304688 10.75 2.203125 C 9.976562 2.109375 9.296875 1.972656 8.703125 1.796875 C 8.117188 1.617188 7.828125 1.390625 7.828125 1.109375 L 7.875 0.859375 C 9.21875 1.085938 10.5625 1.269531 11.90625 1.40625 C 13.25 1.550781 14.59375 1.625 15.9375 1.625 C 16.957031 1.625 17.960938 1.5625 18.953125 1.4375 C 19.953125 1.3125 20.945312 1.148438 21.9375 0.953125 C 20.144531 1.273438 18.269531 1.4375 16.3125 1.4375 C 14.9375 1.4375 13.566406 1.375 12.203125 1.25 C 10.847656 1.125 9.5 0.945312 8.15625 0.71875 L 8.40625 0.140625 L 8.296875 -0.1875 C 8.203125 -0.15625 8.0625 -0.140625 7.875 -0.140625 C 7.550781 -0.140625 7.179688 -0.203125 6.765625 -0.328125 C 6.347656 -0.460938 5.957031 -0.625 5.59375 -0.8125 C 5.226562 -1.007812 4.914062 -1.234375 4.65625 -1.484375 C 4.394531 -1.742188 4.265625 -2 4.265625 -2.25 C 4.265625 -2.414062 4.394531 -2.546875 4.65625 -2.640625 C 4.914062 -2.734375 5.210938 -2.800781 5.546875 -2.84375 C 5.878906 -2.894531 6.207031 -2.9375 6.53125 -2.96875 C 6.851562 -3.007812 7.078125 -3.046875 7.203125 -3.078125 Z M 12.046875 -27.21875 C 12.109375 -27.019531 12.179688 -26.609375 12.265625 -25.984375 C 12.347656 -25.367188 12.425781 -24.644531 12.5 -23.8125 C 12.582031 -22.976562 12.65625 -22.082031 12.71875 -21.125 C 12.78125 -20.164062 12.832031 -19.242188 12.875 -18.359375 C 12.925781 -17.484375 12.96875 -16.695312 13 -16 C 13.039062 -15.3125 13.0625 -14.828125 13.0625 -14.546875 C 13.0625 -12.847656 12.992188 -11.15625 12.859375 -9.46875 C 12.734375 -7.789062 12.671875 -6.109375 12.671875 -4.421875 C 12.671875 -3.773438 12.882812 -3.367188 13.3125 -3.203125 C 13.75 -3.046875 14.222656 -2.96875 14.734375 -2.96875 C 16.273438 -2.96875 17.796875 -3.023438 19.296875 -3.140625 C 20.796875 -3.253906 22.269531 -3.582031 23.71875 -4.125 L 23.859375 -3.546875 C 24.492188 -3.867188 25.054688 -4.257812 25.546875 -4.71875 C 26.046875 -5.1875 26.296875 -5.804688 26.296875 -6.578125 C 26.296875 -7.441406 26.023438 -8.1875 25.484375 -8.8125 C 24.941406 -9.4375 24.273438 -9.9375 23.484375 -10.3125 C 22.703125 -10.695312 21.875 -10.984375 21 -11.171875 C 20.125 -11.367188 19.347656 -11.46875 18.671875 -11.46875 C 18.609375 -11.46875 18.476562 -11.425781 18.28125 -11.34375 C 18.09375 -11.269531 17.953125 -11.21875 17.859375 -11.1875 C 18.304688 -11.15625 18.863281 -11.070312 19.53125 -10.9375 C 20.207031 -10.8125 20.894531 -10.644531 21.59375 -10.4375 C 22.300781 -10.226562 22.972656 -9.960938 23.609375 -9.640625 C 24.253906 -9.328125 24.785156 -8.976562 25.203125 -8.59375 C 24.585938 -9.070312 23.753906 -9.472656 22.703125 -9.796875 C 21.617188 -10.109375 20.503906 -10.359375 19.359375 -10.546875 C 18.222656 -10.742188 17.175781 -10.898438 16.21875 -11.015625 C 15.257812 -11.128906 14.601562 -11.21875 14.25 -11.28125 L 14.015625 -16.609375 L 14.109375 -16.609375 C 14.941406 -16.609375 15.8125 -16.757812 16.71875 -17.0625 C 17.632812 -17.363281 18.476562 -17.796875 19.25 -18.359375 C 20.019531 -18.921875 20.660156 -19.59375 21.171875 -20.375 C 21.679688 -21.15625 21.9375 -22.007812 21.9375 -22.9375 C 21.9375 -23.832031 21.742188 -24.566406 21.359375 -25.140625 C 20.972656 -25.722656 20.46875 -26.179688 19.84375 -26.515625 C 19.21875 -26.859375 18.519531 -27.082031 17.75 -27.1875 C 16.988281 -27.300781 16.238281 -27.359375 15.5 -27.359375 C 14.925781 -27.359375 14.347656 -27.332031 13.765625 -27.28125 C 13.191406 -27.238281 12.617188 -27.21875 12.046875 -27.21875 Z M 12.71875 -1.96875 C 13.257812 -1.90625 13.78125 -1.859375 14.28125 -1.828125 C 14.78125 -1.796875 15.300781 -1.78125 15.84375 -1.78125 C 16.351562 -1.78125 16.984375 -1.800781 17.734375 -1.84375 C 18.484375 -1.894531 19.28125 -1.984375 20.125 -2.109375 C 20.976562 -2.234375 21.828125 -2.40625 22.671875 -2.625 C 23.523438 -2.851562 24.285156 -3.144531 24.953125 -3.5 C 25.628906 -3.851562 26.179688 -4.285156 26.609375 -4.796875 C 27.046875 -5.304688 27.265625 -5.914062 27.265625 -6.625 C 27.265625 -7.007812 27.195312 -7.375 27.0625 -7.71875 C 26.9375 -8.070312 26.765625 -8.410156 26.546875 -8.734375 C 26.703125 -8.484375 26.835938 -8.203125 26.953125 -7.890625 C 27.066406 -7.585938 27.125 -7.273438 27.125 -6.953125 C 27.125 -5.867188 26.753906 -5.003906 26.015625 -4.359375 C 25.273438 -3.722656 24.382812 -3.238281 23.34375 -2.90625 C 22.3125 -2.570312 21.234375 -2.351562 20.109375 -2.25 C 18.992188 -2.15625 18.035156 -2.109375 17.234375 -2.109375 C 16.492188 -2.109375 15.75 -2.128906 15 -2.171875 C 14.25 -2.222656 13.503906 -2.285156 12.765625 -2.359375 Z M 8.40625 -2.734375 C 8.46875 -3.859375 8.5 -4.992188 8.5 -6.140625 L 8.5 -9.546875 C 8.5 -10.191406 8.484375 -10.816406 8.453125 -11.421875 C 8.421875 -11.992188 8.367188 -12.570312 8.296875 -13.15625 C 8.296875 -12.320312 8.296875 -11.488281 8.296875 -10.65625 C 8.335938 -9.789062 8.359375 -8.925781 8.359375 -8.0625 C 8.359375 -7.164062 8.335938 -6.285156 8.296875 -5.421875 C 8.265625 -4.554688 8.1875 -3.691406 8.0625 -2.828125 Z M 17.46875 -16.46875 C 18.050781 -16.8125 18.601562 -17.175781 19.125 -17.5625 C 19.65625 -17.945312 20.144531 -18.394531 20.59375 -18.90625 C 20.4375 -18.90625 20.359375 -18.972656 20.359375 -19.109375 C 19.359375 -18.015625 18.125 -17.164062 16.65625 -16.5625 Z M 19.96875 -12 C 20.925781 -11.84375 21.953125 -11.539062 23.046875 -11.09375 C 23.972656 -10.707031 24.800781 -10.257812 25.53125 -9.75 C 24.832031 -10.320312 24.003906 -10.816406 23.046875 -11.234375 C 21.984375 -11.742188 20.972656 -12 20.015625 -12 Z M 9.03125 -26.15625 L 9.359375 -26.921875 L 8.59375 -26.828125 C 8.59375 -26.765625 8.597656 -26.707031 8.609375 -26.65625 C 8.628906 -26.613281 8.640625 -26.5625 8.640625 -26.5 C 8.640625 -26.4375 8.628906 -26.378906 8.609375 -26.328125 C 8.597656 -26.273438 8.59375 -26.21875 8.59375 -26.15625 Z M 30.09375 -4.21875 C 30.414062 -5.050781 30.578125 -5.835938 30.578125 -6.578125 L 30.578125 -7.109375 C 30.578125 -7.296875 30.5625 -7.46875 30.53125 -7.625 C 30.53125 -6.601562 30.425781 -5.648438 30.21875 -4.765625 C 30.007812 -3.890625 29.566406 -3.066406 28.890625 -2.296875 C 29.398438 -2.816406 29.800781 -3.457031 30.09375 -4.21875 Z M 12.09375 -12.09375 C 11.96875 -11.488281 11.890625 -10.878906 11.859375 -10.265625 C 11.828125 -9.753906 11.8125 -9.226562 11.8125 -8.6875 C 11.84375 -9.195312 11.890625 -9.707031 11.953125 -10.21875 C 12.015625 -10.832031 12.0625 -11.457031 12.09375 -12.09375 Z M 28.796875 -2.203125 C 28.191406 -1.566406 27.519531 -1.054688 26.78125 -0.671875 C 26.050781 -0.285156 25.285156 0.0664062 24.484375 0.390625 C 25.316406 0.0976562 26.097656 -0.238281 26.828125 -0.625 C 27.566406 -1.007812 28.222656 -1.535156 28.796875 -2.203125 Z M 27.3125 -12.953125 C 27.601562 -12.703125 27.875 -12.445312 28.125 -12.1875 L 28.796875 -11.515625 C 28.609375 -11.804688 28.398438 -12.0625 28.171875 -12.28125 C 27.953125 -12.539062 27.664062 -12.765625 27.3125 -12.953125 Z M 11.8125 -3.265625 L 11.8125 -4.703125 C 11.78125 -4.441406 11.753906 -4.195312 11.734375 -3.96875 C 11.722656 -3.75 11.71875 -3.515625 11.71875 -3.265625 Z M 25.296875 -8.5 C 25.804688 -8.082031 26.0625 -7.585938 26.0625 -7.015625 L 26.0625 -6.90625 C 25.96875 -7.488281 25.710938 -8.019531 25.296875 -8.5 Z M 25.15625 -4.9375 C 24.863281 -4.65625 24.507812 -4.429688 24.09375 -4.265625 Z M 11.609375 -2.109375 L 11.8125 -2.109375 L 11.8125 -2.453125 L 11.609375 -2.453125 Z M 25.734375 -5.765625 C 25.703125 -5.765625 25.6875 -5.796875 25.6875 -5.859375 C 25.6875 -5.921875 25.707031 -6.003906 25.75 -6.109375 C 25.800781 -6.222656 25.859375 -6.316406 25.921875 -6.390625 Z M 26.0625 -6.625 C 26.0625 -6.59375 26.03125 -6.546875 25.96875 -6.484375 L 26.0625 -6.671875 Z M 26.0625 -6.625 "/></g></g></g><g fill="#ffffff" fill-opacity="1"><g transform="translate(90.919658, 212.725035)"><g><path d="M 10.703125 0.53125 C 10.378906 0.59375 10.023438 0.625 9.640625 0.625 L 8.25 0.625 C 7.425781 0.625 6.84375 0.71875 6.5 0.90625 C 6.164062 1.101562 5.96875 1.203125 5.90625 1.203125 L 5.71875 0.34375 L 5.71875 -0.53125 L 5.46875 -5.046875 C 5.40625 -5.910156 5.226562 -6.835938 4.9375 -7.828125 C 4.65625 -8.816406 4.429688 -9.820312 4.265625 -10.84375 C 4.171875 -11.519531 4.09375 -12.160156 4.03125 -12.765625 L 3.84375 -14.640625 C 3.78125 -15.273438 3.707031 -15.925781 3.625 -16.59375 C 3.539062 -17.269531 3.421875 -17.992188 3.265625 -18.765625 C 3.265625 -18.960938 3.269531 -19.15625 3.28125 -19.34375 C 3.300781 -19.53125 3.3125 -19.722656 3.3125 -19.921875 C 3.3125 -20.910156 3.226562 -21.882812 3.0625 -22.84375 C 2.90625 -23.800781 2.6875 -24.75 2.40625 -25.6875 C 2.625 -25.78125 2.828125 -25.863281 3.015625 -25.9375 C 3.210938 -26.019531 3.390625 -26.0625 3.546875 -26.0625 C 3.710938 -26.0625 3.890625 -25.875 4.078125 -25.5 C 4.273438 -25.132812 4.484375 -24.378906 4.703125 -23.234375 C 4.765625 -23.234375 4.859375 -23.253906 4.984375 -23.296875 C 5.117188 -23.347656 5.21875 -23.375 5.28125 -23.375 C 5.25 -23.914062 5.164062 -24.5 5.03125 -25.125 C 4.90625 -25.75 4.78125 -26.347656 4.65625 -26.921875 C 4.53125 -27.503906 4.410156 -28.023438 4.296875 -28.484375 C 4.179688 -28.953125 4.125 -29.328125 4.125 -29.609375 C 4.125 -29.679688 4.128906 -29.765625 4.140625 -29.859375 C 4.160156 -29.953125 4.238281 -30 4.375 -30 C 4.53125 -30 4.734375 -29.820312 4.984375 -29.46875 C 5.242188 -29.113281 5.515625 -28.664062 5.796875 -28.125 C 6.085938 -27.582031 6.367188 -27 6.640625 -26.375 C 6.921875 -25.75 7.171875 -25.164062 7.390625 -24.625 C 8.253906 -26.257812 9.238281 -27.5 10.34375 -28.34375 C 11.445312 -29.1875 12.894531 -29.609375 14.6875 -29.609375 C 16 -29.609375 17.070312 -29.457031 17.90625 -29.15625 C 18.738281 -28.851562 19.382812 -28.515625 19.84375 -28.140625 C 20.3125 -27.773438 20.625 -27.4375 20.78125 -27.125 L 21.078125 -26.640625 C 21.078125 -26.453125 20.976562 -26.320312 20.78125 -26.25 C 19.945312 -27.050781 19.003906 -27.660156 17.953125 -28.078125 C 16.898438 -28.492188 15.8125 -28.703125 14.6875 -28.703125 C 13.601562 -28.703125 12.785156 -28.554688 12.234375 -28.265625 C 11.722656 -28.015625 11.179688 -27.695312 10.609375 -27.3125 C 11.210938 -27.695312 11.769531 -28 12.28125 -28.21875 C 12.832031 -28.445312 13.617188 -28.5625 14.640625 -28.5625 C 15.753906 -28.5625 16.820312 -28.34375 17.84375 -27.90625 C 18.875 -27.476562 19.757812 -26.925781 20.5 -26.25 C 20.332031 -26.1875 20.191406 -26.113281 20.078125 -26.03125 C 19.972656 -25.957031 19.921875 -25.84375 19.921875 -25.6875 C 20.078125 -25.6875 20.25 -25.582031 20.4375 -25.375 C 20.632812 -25.164062 20.8125 -24.914062 20.96875 -24.625 C 21.132812 -24.332031 21.269531 -24.035156 21.375 -23.734375 C 21.488281 -23.429688 21.546875 -23.179688 21.546875 -22.984375 C 21.546875 -22.441406 21.335938 -22.171875 20.921875 -22.171875 C 20.609375 -22.171875 20.226562 -22.285156 19.78125 -22.515625 C 19.675781 -22.546875 19.472656 -22.71875 19.171875 -23.03125 C 18.867188 -23.351562 18.492188 -23.679688 18.046875 -24.015625 C 17.597656 -24.359375 17.082031 -24.671875 16.5 -24.953125 C 15.925781 -25.242188 15.289062 -25.390625 14.59375 -25.390625 C 14.019531 -25.390625 13.515625 -25.269531 13.078125 -25.03125 C 12.648438 -24.789062 12.257812 -24.46875 11.90625 -24.0625 C 11.550781 -23.664062 11.226562 -23.210938 10.9375 -22.703125 L 10.3125 -21.546875 C 10.800781 -22.410156 11.332031 -23.195312 11.90625 -23.90625 C 12.539062 -24.738281 13.335938 -25.15625 14.296875 -25.15625 C 15.128906 -25.15625 15.894531 -24.96875 16.59375 -24.59375 C 17.300781 -24.226562 17.882812 -23.773438 18.34375 -23.234375 C 17.789062 -23.453125 17.144531 -23.671875 16.40625 -23.890625 C 15.675781 -24.117188 14.972656 -24.234375 14.296875 -24.234375 C 13.953125 -24.234375 13.648438 -24.15625 13.390625 -24 C 13.140625 -23.84375 12.925781 -23.644531 12.75 -23.40625 C 12.570312 -23.164062 12.410156 -22.898438 12.265625 -22.609375 C 12.117188 -22.316406 11.96875 -22.046875 11.8125 -21.796875 L 11.1875 -21.703125 C 10.644531 -20.765625 10.203125 -19.679688 9.859375 -18.453125 C 9.523438 -17.222656 9.359375 -15.9375 9.359375 -14.59375 C 9.359375 -13.789062 9.394531 -13.066406 9.46875 -12.421875 C 9.550781 -11.785156 9.675781 -11.132812 9.84375 -10.46875 L 10.421875 -8.96875 L 10.3125 -10.375 C 10.25 -11.457031 10.1875 -12.421875 10.125 -13.265625 C 10.0625 -14.117188 10.03125 -15.054688 10.03125 -16.078125 C 10.09375 -17.003906 10.222656 -17.882812 10.421875 -18.71875 C 10.578125 -19.425781 10.816406 -20.082031 11.140625 -20.6875 C 10.753906 -19.914062 10.5 -19.035156 10.375 -18.046875 C 10.207031 -16.960938 10.125 -15.8125 10.125 -14.59375 C 10.125 -13.632812 10.171875 -12.722656 10.265625 -11.859375 C 10.367188 -10.992188 10.488281 -10.128906 10.625 -9.265625 C 10.769531 -8.398438 10.921875 -7.507812 11.078125 -6.59375 C 11.242188 -5.6875 11.375 -4.6875 11.46875 -3.59375 L 11.609375 -2.6875 L 11.90625 0.046875 Z M 11.28125 -20.921875 L 11.140625 -20.6875 Z M 11.28125 -20.921875 "/></g></g></g><g fill="#ffffff" fill-opacity="1"><g transform="translate(112.466398, 212.725035)"><g><path d="M 12.578125 -28.890625 C 12.609375 -28.734375 12.785156 -28.65625 13.109375 -28.65625 L 13.203125 -28.65625 C 13.390625 -28.65625 13.515625 -28.640625 13.578125 -28.609375 C 15.242188 -28.097656 16.898438 -27.351562 18.546875 -26.375 C 20.203125 -25.394531 21.691406 -24.222656 23.015625 -22.859375 C 24.347656 -21.503906 25.421875 -19.960938 26.234375 -18.234375 C 27.046875 -16.503906 27.453125 -14.648438 27.453125 -12.671875 C 27.453125 -10.941406 27.113281 -9.273438 26.4375 -7.671875 C 25.769531 -6.078125 24.84375 -4.6875 23.65625 -3.5 C 24.875 -4.5625 25.84375 -5.882812 26.5625 -7.46875 C 27.28125 -9.050781 27.640625 -10.753906 27.640625 -12.578125 C 27.640625 -14.617188 27.207031 -16.523438 26.34375 -18.296875 C 25.488281 -20.078125 24.390625 -21.671875 23.046875 -23.078125 C 21.703125 -24.492188 20.203125 -25.703125 18.546875 -26.703125 C 16.898438 -27.710938 15.296875 -28.492188 13.734375 -29.046875 C 14.941406 -29.046875 16.175781 -28.769531 17.4375 -28.21875 C 18.707031 -27.675781 19.914062 -26.960938 21.0625 -26.078125 C 22.21875 -25.203125 23.285156 -24.195312 24.265625 -23.0625 C 25.242188 -21.925781 26.066406 -20.765625 26.734375 -19.578125 L 26.40625 -19.109375 C 27.039062 -18.140625 27.523438 -17.09375 27.859375 -15.96875 C 28.203125 -14.851562 28.375 -13.707031 28.375 -12.53125 C 28.375 -10.257812 27.882812 -8.265625 26.90625 -6.546875 C 25.925781 -4.835938 24.691406 -3.414062 23.203125 -2.28125 C 21.710938 -1.144531 20.078125 -0.289062 18.296875 0.28125 C 16.523438 0.863281 14.859375 1.15625 13.296875 1.15625 C 12.398438 1.15625 11.492188 1.054688 10.578125 0.859375 C 9.671875 0.671875 8.753906 0.351562 7.828125 -0.09375 L 7.828125 0.1875 C 8.722656 0.695312 9.640625 1.046875 10.578125 1.234375 C 11.523438 1.429688 12.460938 1.53125 13.390625 1.53125 C 15.691406 1.53125 17.953125 1.023438 20.171875 0.015625 C 22.398438 -0.984375 24.285156 -2.394531 25.828125 -4.21875 C 24.347656 -2.332031 22.515625 -0.863281 20.328125 0.1875 C 18.140625 1.25 15.859375 1.78125 13.484375 1.78125 C 11.054688 1.78125 9.085938 1.304688 7.578125 0.359375 C 6.078125 -0.585938 4.898438 -1.75 4.046875 -3.125 C 3.203125 -4.5 2.632812 -5.953125 2.34375 -7.484375 C 2.0625 -9.023438 1.921875 -10.398438 1.921875 -11.609375 C 1.921875 -13.242188 2.132812 -14.84375 2.5625 -16.40625 C 3 -17.976562 3.664062 -19.421875 4.5625 -20.734375 C 5.457031 -22.046875 6.609375 -23.171875 8.015625 -24.109375 C 9.421875 -25.054688 11.117188 -25.722656 13.109375 -26.109375 L 11.71875 -26.453125 C 11.039062 -26.609375 10.554688 -26.796875 10.265625 -27.015625 C 9.984375 -27.242188 9.84375 -27.4375 9.84375 -27.59375 C 9.84375 -27.851562 10.117188 -28.132812 10.671875 -28.4375 C 11.234375 -28.738281 11.867188 -28.890625 12.578125 -28.890625 Z M 10.421875 -22.84375 C 11.285156 -23.164062 12.113281 -23.328125 12.90625 -23.328125 C 13.707031 -23.328125 14.320312 -23.207031 14.75 -22.96875 C 15.1875 -22.726562 15.40625 -22.476562 15.40625 -22.21875 C 15.40625 -22.0625 15.21875 -21.882812 14.84375 -21.6875 C 14.476562 -21.5 14.015625 -21.238281 13.453125 -20.90625 C 12.898438 -20.570312 12.296875 -20.144531 11.640625 -19.625 C 10.984375 -19.113281 10.375 -18.46875 9.8125 -17.6875 C 9.25 -16.90625 8.785156 -15.953125 8.421875 -14.828125 C 8.054688 -13.710938 7.875 -12.398438 7.875 -10.890625 C 7.875 -8.679688 8.367188 -7.015625 9.359375 -5.890625 C 10.347656 -4.773438 11.722656 -4.21875 13.484375 -4.21875 C 14.609375 -4.21875 15.753906 -4.410156 16.921875 -4.796875 C 18.085938 -5.179688 19.140625 -5.722656 20.078125 -6.421875 C 21.023438 -7.128906 21.796875 -7.992188 22.390625 -9.015625 C 22.984375 -10.046875 23.28125 -11.203125 23.28125 -12.484375 C 23.28125 -13.441406 23.109375 -14.398438 22.765625 -15.359375 C 22.429688 -16.316406 21.96875 -17.234375 21.375 -18.109375 C 20.789062 -18.992188 20.085938 -19.820312 19.265625 -20.59375 C 18.453125 -21.363281 17.566406 -22.019531 16.609375 -22.5625 C 15.679688 -23.070312 14.921875 -23.460938 14.328125 -23.734375 C 13.734375 -24.003906 13.3125 -24.269531 13.0625 -24.53125 C 12.800781 -24.40625 12.4375 -24.253906 11.96875 -24.078125 C 11.507812 -23.898438 10.894531 -23.632812 10.125 -23.28125 Z M 13.625 -25.109375 C 15.101562 -24.628906 16.515625 -23.90625 17.859375 -22.9375 C 19.003906 -22.070312 20.0625 -21.128906 21.03125 -20.109375 C 20.09375 -21.203125 19.082031 -22.179688 18 -23.046875 C 16.75 -24.066406 15.359375 -24.863281 13.828125 -25.4375 Z M 22.9375 -8.734375 C 22.457031 -7.710938 21.785156 -6.800781 20.921875 -6 C 21.503906 -6.382812 21.992188 -6.847656 22.390625 -7.390625 C 22.785156 -7.929688 23.113281 -8.472656 23.375 -9.015625 C 23.632812 -9.566406 23.828125 -10.066406 23.953125 -10.515625 C 24.046875 -10.929688 24.125 -11.265625 24.1875 -11.515625 C 23.832031 -10.679688 23.414062 -9.753906 22.9375 -8.734375 Z M 26.15625 -4.609375 C 26.125 -4.546875 26.078125 -4.484375 26.015625 -4.421875 C 25.984375 -4.390625 25.953125 -4.375 25.921875 -4.375 C 25.890625 -4.375 25.96875 -4.539062 26.15625 -4.875 C 26.351562 -5.207031 26.585938 -5.601562 26.859375 -6.0625 C 27.128906 -6.53125 27.390625 -7.019531 27.640625 -7.53125 C 27.867188 -7.914062 28.03125 -8.253906 28.125 -8.546875 C 27.675781 -7.171875 27.019531 -5.859375 26.15625 -4.609375 Z M 28.84375 -12.390625 C 28.84375 -11.867188 28.8125 -11.359375 28.75 -10.859375 C 28.6875 -10.367188 28.578125 -9.914062 28.421875 -9.5 C 28.640625 -10.300781 28.75 -11.195312 28.75 -12.1875 C 28.75 -12.925781 28.6875 -13.648438 28.5625 -14.359375 C 28.46875 -14.960938 28.335938 -15.550781 28.171875 -16.125 C 28.335938 -15.550781 28.484375 -14.976562 28.609375 -14.40625 C 28.765625 -13.757812 28.84375 -13.085938 28.84375 -12.390625 Z M 13.625 -25.875 L 13.203125 -26.0625 C 13.171875 -26 13.117188 -25.9375 13.046875 -25.875 C 12.984375 -25.8125 12.953125 -25.75 12.953125 -25.6875 C 12.953125 -25.613281 12.992188 -25.519531 13.078125 -25.40625 C 13.160156 -25.300781 13.234375 -25.21875 13.296875 -25.15625 Z M 21.3125 -19.78125 C 21.21875 -19.90625 21.125 -20.015625 21.03125 -20.109375 C 21.125 -19.984375 21.21875 -19.875 21.3125 -19.78125 Z M 28.125 -8.546875 C 28.15625 -8.609375 28.171875 -8.671875 28.171875 -8.734375 C 28.171875 -8.671875 28.15625 -8.609375 28.125 -8.546875 Z M 28.21875 -8.828125 C 28.1875 -8.796875 28.171875 -8.765625 28.171875 -8.734375 C 28.171875 -8.765625 28.1875 -8.796875 28.21875 -8.828125 Z M 28.21875 -8.828125 "/></g></g></g><g fill="#ffffff" fill-opacity="1"><g transform="translate(143.22689, 212.725035)"><g/></g></g><g fill="#ffffff" fill-opacity="1"><g transform="translate(160.022787, 212.725035)"><g><path d="M 25.78125 -5.09375 C 25.71875 -4.289062 25.40625 -3.59375 24.84375 -3 C 24.28125 -2.40625 23.585938 -1.90625 22.765625 -1.5 C 21.953125 -1.101562 21.085938 -0.8125 20.171875 -0.625 C 19.265625 -0.4375 18.445312 -0.34375 17.71875 -0.34375 C 15.539062 -0.34375 13.585938 -0.859375 11.859375 -1.890625 C 10.128906 -2.929688 8.65625 -4.273438 7.4375 -5.921875 C 6.21875 -7.578125 5.257812 -9.410156 4.5625 -11.421875 C 3.882812 -13.378906 3.5 -15.300781 3.40625 -17.1875 C 3.46875 -15.226562 3.835938 -13.257812 4.515625 -11.28125 C 5.210938 -9.226562 6.171875 -7.367188 7.390625 -5.703125 C 8.609375 -4.046875 10.097656 -2.695312 11.859375 -1.65625 C 13.617188 -0.613281 15.601562 -0.09375 17.8125 -0.09375 C 19.019531 -0.09375 20.203125 -0.285156 21.359375 -0.671875 C 22.515625 -1.054688 23.585938 -1.582031 24.578125 -2.25 C 23.835938 -1.132812 22.859375 -0.335938 21.640625 0.140625 C 20.429688 0.617188 19.1875 0.859375 17.90625 0.859375 C 16.46875 0.859375 15.140625 0.65625 13.921875 0.25 C 12.703125 -0.144531 11.519531 -0.769531 10.375 -1.625 L 10.171875 -2.40625 C 8.859375 -3.195312 7.726562 -4.1875 6.78125 -5.375 C 5.84375 -6.5625 5.078125 -7.84375 4.484375 -9.21875 C 3.890625 -10.59375 3.457031 -12.03125 3.1875 -13.53125 C 2.914062 -15.039062 2.78125 -16.546875 2.78125 -18.046875 C 2.78125 -19.648438 2.929688 -21.242188 3.234375 -22.828125 C 3.546875 -24.410156 3.972656 -25.96875 4.515625 -27.5 C 4.378906 -27.5 4.3125 -27.546875 4.3125 -27.640625 C 3.644531 -26.171875 3.148438 -24.648438 2.828125 -23.078125 C 2.515625 -21.515625 2.359375 -19.914062 2.359375 -18.28125 C 2.359375 -15.175781 2.960938 -12.191406 4.171875 -9.328125 C 5.390625 -6.472656 7.195312 -4.050781 9.59375 -2.0625 C 8.351562 -3.019531 7.257812 -4.125 6.3125 -5.375 C 5.363281 -6.625 4.585938 -7.957031 3.984375 -9.375 C 3.378906 -10.800781 2.921875 -12.28125 2.609375 -13.8125 C 2.304688 -15.351562 2.15625 -16.910156 2.15625 -18.484375 C 2.15625 -20.585938 2.453125 -22.734375 3.046875 -24.921875 C 3.640625 -27.117188 4.535156 -29.113281 5.734375 -30.90625 C 6.929688 -32.695312 8.425781 -34.160156 10.21875 -35.296875 C 12.007812 -36.441406 14.109375 -37.015625 16.515625 -37.015625 C 17.597656 -37.015625 18.628906 -36.835938 19.609375 -36.484375 C 20.585938 -36.128906 21.503906 -35.660156 22.359375 -35.078125 C 23.222656 -34.503906 24.03125 -33.847656 24.78125 -33.109375 C 25.539062 -32.378906 26.253906 -31.628906 26.921875 -30.859375 L 25.921875 -30 C 25.472656 -30.15625 25.046875 -30.398438 24.640625 -30.734375 C 24.242188 -31.078125 23.882812 -31.425781 23.5625 -31.78125 L 23.28125 -31.4375 C 23.695312 -30.957031 24.078125 -30.40625 24.421875 -29.78125 C 24.773438 -29.15625 24.953125 -28.507812 24.953125 -27.84375 L 24.4375 -26.96875 C 24.019531 -27.007812 23.5 -27.257812 22.875 -27.71875 C 22.25 -28.1875 21.5625 -28.679688 20.8125 -29.203125 C 20.0625 -29.734375 19.289062 -30.222656 18.5 -30.671875 C 17.71875 -31.117188 16.957031 -31.34375 16.21875 -31.34375 C 15.257812 -31.34375 14.40625 -31.101562 13.65625 -30.625 C 12.90625 -30.144531 12.222656 -29.519531 11.609375 -28.75 C 11.003906 -27.976562 10.484375 -27.097656 10.046875 -26.109375 C 9.617188 -25.117188 9.269531 -24.109375 9 -23.078125 C 8.726562 -22.054688 8.519531 -21.054688 8.375 -20.078125 C 8.226562 -19.109375 8.15625 -18.253906 8.15625 -17.515625 C 8.15625 -16.265625 8.351562 -14.890625 8.75 -13.390625 C 9.15625 -11.890625 9.75 -10.488281 10.53125 -9.1875 C 11.320312 -7.894531 12.289062 -6.816406 13.4375 -5.953125 C 14.59375 -5.085938 15.90625 -4.65625 17.375 -4.65625 C 18.050781 -4.65625 18.75 -4.726562 19.46875 -4.875 C 20.1875 -5.019531 20.832031 -5.265625 21.40625 -5.609375 L 21.796875 -5.1875 C 20.578125 -4.257812 19.179688 -3.796875 17.609375 -3.796875 C 16.078125 -3.796875 14.671875 -4.160156 13.390625 -4.890625 C 13.992188 -4.472656 14.664062 -4.171875 15.40625 -3.984375 C 16.207031 -3.753906 17.007812 -3.640625 17.8125 -3.640625 C 19.28125 -3.640625 20.65625 -4.054688 21.9375 -4.890625 L 22.375 -4.265625 C 22.6875 -4.617188 23.082031 -4.960938 23.5625 -5.296875 C 24.039062 -5.640625 24.539062 -5.84375 25.0625 -5.90625 Z M 7.4375 -14.734375 C 7.601562 -12.878906 8.148438 -11.101562 9.078125 -9.40625 C 10.003906 -7.738281 11.21875 -6.394531 12.71875 -5.375 C 11.21875 -6.425781 10.035156 -7.785156 9.171875 -9.453125 C 8.273438 -11.148438 7.695312 -12.910156 7.4375 -14.734375 Z M 7.4375 -14.734375 "/></g></g></g><g fill="#ffffff" fill-opacity="1"><g transform="translate(188.623814, 212.725035)"><g><path d="M 12.578125 -28.890625 C 12.609375 -28.734375 12.785156 -28.65625 13.109375 -28.65625 L 13.203125 -28.65625 C 13.390625 -28.65625 13.515625 -28.640625 13.578125 -28.609375 C 15.242188 -28.097656 16.898438 -27.351562 18.546875 -26.375 C 20.203125 -25.394531 21.691406 -24.222656 23.015625 -22.859375 C 24.347656 -21.503906 25.421875 -19.960938 26.234375 -18.234375 C 27.046875 -16.503906 27.453125 -14.648438 27.453125 -12.671875 C 27.453125 -10.941406 27.113281 -9.273438 26.4375 -7.671875 C 25.769531 -6.078125 24.84375 -4.6875 23.65625 -3.5 C 24.875 -4.5625 25.84375 -5.882812 26.5625 -7.46875 C 27.28125 -9.050781 27.640625 -10.753906 27.640625 -12.578125 C 27.640625 -14.617188 27.207031 -16.523438 26.34375 -18.296875 C 25.488281 -20.078125 24.390625 -21.671875 23.046875 -23.078125 C 21.703125 -24.492188 20.203125 -25.703125 18.546875 -26.703125 C 16.898438 -27.710938 15.296875 -28.492188 13.734375 -29.046875 C 14.941406 -29.046875 16.175781 -28.769531 17.4375 -28.21875 C 18.707031 -27.675781 19.914062 -26.960938 21.0625 -26.078125 C 22.21875 -25.203125 23.285156 -24.195312 24.265625 -23.0625 C 25.242188 -21.925781 26.066406 -20.765625 26.734375 -19.578125 L 26.40625 -19.109375 C 27.039062 -18.140625 27.523438 -17.09375 27.859375 -15.96875 C 28.203125 -14.851562 28.375 -13.707031 28.375 -12.53125 C 28.375 -10.257812 27.882812 -8.265625 26.90625 -6.546875 C 25.925781 -4.835938 24.691406 -3.414062 23.203125 -2.28125 C 21.710938 -1.144531 20.078125 -0.289062 18.296875 0.28125 C 16.523438 0.863281 14.859375 1.15625 13.296875 1.15625 C 12.398438 1.15625 11.492188 1.054688 10.578125 0.859375 C 9.671875 0.671875 8.753906 0.351562 7.828125 -0.09375 L 7.828125 0.1875 C 8.722656 0.695312 9.640625 1.046875 10.578125 1.234375 C 11.523438 1.429688 12.460938 1.53125 13.390625 1.53125 C 15.691406 1.53125 17.953125 1.023438 20.171875 0.015625 C 22.398438 -0.984375 24.285156 -2.394531 25.828125 -4.21875 C 24.347656 -2.332031 22.515625 -0.863281 20.328125 0.1875 C 18.140625 1.25 15.859375 1.78125 13.484375 1.78125 C 11.054688 1.78125 9.085938 1.304688 7.578125 0.359375 C 6.078125 -0.585938 4.898438 -1.75 4.046875 -3.125 C 3.203125 -4.5 2.632812 -5.953125 2.34375 -7.484375 C 2.0625 -9.023438 1.921875 -10.398438 1.921875 -11.609375 C 1.921875 -13.242188 2.132812 -14.84375 2.5625 -16.40625 C 3 -17.976562 3.664062 -19.421875 4.5625 -20.734375 C 5.457031 -22.046875 6.609375 -23.171875 8.015625 -24.109375 C 9.421875 -25.054688 11.117188 -25.722656 13.109375 -26.109375 L 11.71875 -26.453125 C 11.039062 -26.609375 10.554688 -26.796875 10.265625 -27.015625 C 9.984375 -27.242188 9.84375 -27.4375 9.84375 -27.59375 C 9.84375 -27.851562 10.117188 -28.132812 10.671875 -28.4375 C 11.234375 -28.738281 11.867188 -28.890625 12.578125 -28.890625 Z M 10.421875 -22.84375 C 11.285156 -23.164062 12.113281 -23.328125 12.90625 -23.328125 C 13.707031 -23.328125 14.320312 -23.207031 14.75 -22.96875 C 15.1875 -22.726562 15.40625 -22.476562 15.40625 -22.21875 C 15.40625 -22.0625 15.21875 -21.882812 14.84375 -21.6875 C 14.476562 -21.5 14.015625 -21.238281 13.453125 -20.90625 C 12.898438 -20.570312 12.296875 -20.144531 11.640625 -19.625 C 10.984375 -19.113281 10.375 -18.46875 9.8125 -17.6875 C 9.25 -16.90625 8.785156 -15.953125 8.421875 -14.828125 C 8.054688 -13.710938 7.875 -12.398438 7.875 -10.890625 C 7.875 -8.679688 8.367188 -7.015625 9.359375 -5.890625 C 10.347656 -4.773438 11.722656 -4.21875 13.484375 -4.21875 C 14.609375 -4.21875 15.753906 -4.410156 16.921875 -4.796875 C 18.085938 -5.179688 19.140625 -5.722656 20.078125 -6.421875 C 21.023438 -7.128906 21.796875 -7.992188 22.390625 -9.015625 C 22.984375 -10.046875 23.28125 -11.203125 23.28125 -12.484375 C 23.28125 -13.441406 23.109375 -14.398438 22.765625 -15.359375 C 22.429688 -16.316406 21.96875 -17.234375 21.375 -18.109375 C 20.789062 -18.992188 20.085938 -19.820312 19.265625 -20.59375 C 18.453125 -21.363281 17.566406 -22.019531 16.609375 -22.5625 C 15.679688 -23.070312 14.921875 -23.460938 14.328125 -23.734375 C 13.734375 -24.003906 13.3125 -24.269531 13.0625 -24.53125 C 12.800781 -24.40625 12.4375 -24.253906 11.96875 -24.078125 C 11.507812 -23.898438 10.894531 -23.632812 10.125 -23.28125 Z M 13.625 -25.109375 C 15.101562 -24.628906 16.515625 -23.90625 17.859375 -22.9375 C 19.003906 -22.070312 20.0625 -21.128906 21.03125 -20.109375 C 20.09375 -21.203125 19.082031 -22.179688 18 -23.046875 C 16.75 -24.066406 15.359375 -24.863281 13.828125 -25.4375 Z M 22.9375 -8.734375 C 22.457031 -7.710938 21.785156 -6.800781 20.921875 -6 C 21.503906 -6.382812 21.992188 -6.847656 22.390625 -7.390625 C 22.785156 -7.929688 23.113281 -8.472656 23.375 -9.015625 C 23.632812 -9.566406 23.828125 -10.066406 23.953125 -10.515625 C 24.046875 -10.929688 24.125 -11.265625 24.1875 -11.515625 C 23.832031 -10.679688 23.414062 -9.753906 22.9375 -8.734375 Z M 26.15625 -4.609375 C 26.125 -4.546875 26.078125 -4.484375 26.015625 -4.421875 C 25.984375 -4.390625 25.953125 -4.375 25.921875 -4.375 C 25.890625 -4.375 25.96875 -4.539062 26.15625 -4.875 C 26.351562 -5.207031 26.585938 -5.601562 26.859375 -6.0625 C 27.128906 -6.53125 27.390625 -7.019531 27.640625 -7.53125 C 27.867188 -7.914062 28.03125 -8.253906 28.125 -8.546875 C 27.675781 -7.171875 27.019531 -5.859375 26.15625 -4.609375 Z M 28.84375 -12.390625 C 28.84375 -11.867188 28.8125 -11.359375 28.75 -10.859375 C 28.6875 -10.367188 28.578125 -9.914062 28.421875 -9.5 C 28.640625 -10.300781 28.75 -11.195312 28.75 -12.1875 C 28.75 -12.925781 28.6875 -13.648438 28.5625 -14.359375 C 28.46875 -14.960938 28.335938 -15.550781 28.171875 -16.125 C 28.335938 -15.550781 28.484375 -14.976562 28.609375 -14.40625 C 28.765625 -13.757812 28.84375 -13.085938 28.84375 -12.390625 Z M 13.625 -25.875 L 13.203125 -26.0625 C 13.171875 -26 13.117188 -25.9375 13.046875 -25.875 C 12.984375 -25.8125 12.953125 -25.75 12.953125 -25.6875 C 12.953125 -25.613281 12.992188 -25.519531 13.078125 -25.40625 C 13.160156 -25.300781 13.234375 -25.21875 13.296875 -25.15625 Z M 21.3125 -19.78125 C 21.21875 -19.90625 21.125 -20.015625 21.03125 -20.109375 C 21.125 -19.984375 21.21875 -19.875 21.3125 -19.78125 Z M 28.125 -8.546875 C 28.15625 -8.609375 28.171875 -8.671875 28.171875 -8.734375 C 28.171875 -8.671875 28.15625 -8.609375 28.125 -8.546875 Z M 28.21875 -8.828125 C 28.1875 -8.796875 28.171875 -8.765625 28.171875 -8.734375 C 28.171875 -8.765625 28.1875 -8.796875 28.21875 -8.828125 Z M 28.21875 -8.828125 "/></g></g></g><g fill="#ffffff" fill-opacity="1"><g transform="translate(219.384306, 212.725035)"><g><path d="M 27.75 -35.046875 C 27.8125 -34.109375 27.859375 -33.203125 27.890625 -32.328125 C 27.921875 -31.453125 27.9375 -30.546875 27.9375 -29.609375 C 27.9375 -27.691406 27.878906 -25.765625 27.765625 -23.828125 C 27.648438 -21.890625 27.515625 -19.925781 27.359375 -17.9375 C 27.203125 -15.957031 27.039062 -13.925781 26.875 -11.84375 C 26.71875 -9.769531 26.578125 -7.613281 26.453125 -5.375 C 26.453125 -5.019531 26.441406 -4.660156 26.421875 -4.296875 C 26.410156 -3.929688 26.367188 -3.523438 26.296875 -3.078125 L 26.296875 -2.5 C 26.296875 -2.40625 26.265625 -2.273438 26.203125 -2.109375 C 26.140625 -1.953125 26.078125 -1.84375 26.015625 -1.78125 C 25.597656 -1.300781 25.222656 -0.941406 24.890625 -0.703125 C 24.554688 -0.460938 24.242188 -0.285156 23.953125 -0.171875 C 23.660156 -0.0546875 23.382812 0.00390625 23.125 0.015625 C 22.875 0.0351562 22.625 0.0625 22.375 0.09375 L 22.65625 0.09375 C 22.75 0.09375 22.929688 0.078125 23.203125 0.046875 C 23.472656 0.015625 23.773438 -0.0351562 24.109375 -0.109375 C 24.453125 -0.191406 24.773438 -0.304688 25.078125 -0.453125 C 25.378906 -0.597656 25.597656 -0.800781 25.734375 -1.0625 L 26.15625 -1.921875 C 26.351562 -2.273438 26.472656 -2.648438 26.515625 -3.046875 C 26.566406 -3.441406 26.597656 -3.835938 26.609375 -4.234375 C 26.628906 -4.640625 26.640625 -5.035156 26.640625 -5.421875 C 26.640625 -5.804688 26.671875 -6.175781 26.734375 -6.53125 C 26.828125 -8.539062 26.960938 -10.550781 27.140625 -12.5625 C 27.316406 -14.582031 27.484375 -16.617188 27.640625 -18.671875 C 27.804688 -20.722656 27.953125 -22.796875 28.078125 -24.890625 C 28.203125 -26.984375 28.265625 -29.117188 28.265625 -31.296875 C 28.265625 -31.960938 28.253906 -32.609375 28.234375 -33.234375 C 28.222656 -33.859375 28.203125 -34.460938 28.171875 -35.046875 C 28.265625 -34.910156 28.367188 -34.707031 28.484375 -34.4375 C 28.597656 -34.164062 28.6875 -33.742188 28.75 -33.171875 C 28.90625 -32.816406 29 -32.429688 29.03125 -32.015625 C 29.070312 -31.597656 29.125 -31.164062 29.1875 -30.71875 C 29.1875 -28.539062 29.101562 -26.4375 28.9375 -24.40625 C 28.78125 -22.375 28.625 -20.351562 28.46875 -18.34375 L 28.03125 -18.1875 L 27.59375 -9.984375 C 27.59375 -7.679688 27.488281 -5.785156 27.28125 -4.296875 C 27.070312 -2.804688 26.890625 -1.820312 26.734375 -1.34375 L 26.734375 -1.203125 C 26.253906 -0.722656 25.847656 -0.363281 25.515625 -0.125 C 25.179688 0.113281 24.867188 0.296875 24.578125 0.421875 C 24.285156 0.554688 24.019531 0.628906 23.78125 0.640625 C 23.539062 0.660156 23.296875 0.671875 23.046875 0.671875 L 19.96875 0.671875 C 19.101562 0.578125 18.175781 0.535156 17.1875 0.546875 C 16.195312 0.566406 15.15625 0.460938 14.0625 0.234375 C 12.976562 0.015625 11.867188 -0.441406 10.734375 -1.140625 C 9.597656 -1.847656 8.453125 -2.972656 7.296875 -4.515625 C 7.296875 -4.453125 7.28125 -4.398438 7.25 -4.359375 C 7.21875 -4.328125 7.1875 -4.28125 7.15625 -4.21875 C 8.207031 -2.78125 9.476562 -1.597656 10.96875 -0.671875 C 12.457031 0.253906 14.066406 0.796875 15.796875 0.953125 L 19.828125 0.953125 C 20.210938 1.023438 20.601562 1.066406 21 1.078125 C 21.394531 1.097656 21.832031 1.109375 22.3125 1.109375 C 22.800781 1.109375 23.4375 1.039062 24.21875 0.90625 C 25 0.78125 25.742188 0.363281 26.453125 -0.34375 C 26.578125 -0.5 26.660156 -0.613281 26.703125 -0.6875 C 26.753906 -0.769531 26.8125 -0.894531 26.875 -1.0625 L 27.03125 -1.34375 C 27.1875 -1.632812 27.300781 -1.929688 27.375 -2.234375 C 27.457031 -2.535156 27.53125 -2.832031 27.59375 -3.125 C 27.59375 -2.769531 27.566406 -2.460938 27.515625 -2.203125 C 27.472656 -1.953125 27.359375 -1.570312 27.171875 -1.0625 L 27.03125 -0.90625 L 26.453125 -0.046875 C 26.160156 0.242188 25.835938 0.46875 25.484375 0.625 C 25.128906 0.78125 24.789062 0.898438 24.46875 0.984375 C 24.15625 1.066406 23.863281 1.125 23.59375 1.15625 C 23.320312 1.1875 23.117188 1.21875 22.984375 1.25 L 21.40625 1.25 C 20.988281 1.25 20.644531 1.238281 20.375 1.21875 C 20.101562 1.207031 19.894531 1.191406 19.75 1.171875 C 19.601562 1.160156 19.484375 1.140625 19.390625 1.109375 L 17.953125 1.109375 C 17.660156 1.109375 17.367188 1.113281 17.078125 1.125 C 16.796875 1.144531 16.492188 1.15625 16.171875 1.15625 C 14.671875 1.15625 13.207031 0.789062 11.78125 0.0625 C 10.351562 -0.65625 9.039062 -1.664062 7.84375 -2.96875 C 6.644531 -4.28125 5.582031 -5.832031 4.65625 -7.625 C 3.726562 -9.414062 3.023438 -11.398438 2.546875 -13.578125 C 2.546875 -13.929688 2.519531 -14.269531 2.46875 -14.59375 C 2.425781 -14.914062 2.40625 -15.25 2.40625 -15.59375 C 2.40625 -16.78125 2.585938 -17.988281 2.953125 -19.21875 C 3.316406 -20.457031 3.976562 -21.570312 4.9375 -22.5625 C 5.90625 -23.550781 7.203125 -24.359375 8.828125 -24.984375 C 10.460938 -25.609375 12.53125 -25.921875 15.03125 -25.921875 C 16.175781 -25.921875 17.289062 -25.894531 18.375 -25.84375 C 19.46875 -25.800781 20.578125 -25.75 21.703125 -25.6875 C 21.566406 -25.582031 21.5 -25.46875 21.5 -25.34375 C 21.5 -25.1875 21.53125 -25.050781 21.59375 -24.9375 C 21.664062 -24.820312 21.703125 -24.703125 21.703125 -24.578125 C 21.703125 -24.421875 21.578125 -24.285156 21.328125 -24.171875 C 21.085938 -24.054688 20.585938 -24 19.828125 -24 C 19.566406 -24 19.269531 -24.003906 18.9375 -24.015625 C 18.601562 -24.035156 18.226562 -24.0625 17.8125 -24.09375 L 17.8125 -23.65625 C 19.34375 -23.4375 20.578125 -23.140625 21.515625 -22.765625 C 22.460938 -22.398438 23.050781 -22.078125 23.28125 -21.796875 L 23.375 -21.703125 L 23.5625 -23.8125 C 23.664062 -24.675781 23.71875 -25.648438 23.71875 -26.734375 C 23.71875 -27.859375 23.679688 -28.960938 23.609375 -30.046875 C 23.546875 -31.140625 23.515625 -31.988281 23.515625 -32.59375 C 23.515625 -33.363281 23.5625 -33.875 23.65625 -34.125 C 23.757812 -34.382812 23.890625 -34.515625 24.046875 -34.515625 C 24.171875 -34.515625 24.273438 -34.238281 24.359375 -33.6875 C 24.441406 -33.144531 24.503906 -32.53125 24.546875 -31.84375 C 24.597656 -31.15625 24.625 -30.476562 24.625 -29.8125 L 24.625 -28.421875 C 24.625 -27.492188 24.609375 -26.554688 24.578125 -25.609375 C 24.546875 -24.660156 24.5 -23.722656 24.4375 -22.796875 C 24.53125 -24.015625 24.609375 -25.207031 24.671875 -26.375 C 24.734375 -27.539062 24.765625 -28.734375 24.765625 -29.953125 C 24.765625 -30.691406 24.75 -31.421875 24.71875 -32.140625 C 24.6875 -32.859375 24.640625 -33.582031 24.578125 -34.3125 C 24.765625 -34.125 24.910156 -34.03125 25.015625 -34.03125 C 25.140625 -34.03125 25.234375 -34.125 25.296875 -34.3125 C 25.265625 -34.570312 25.234375 -34.847656 25.203125 -35.140625 C 25.171875 -35.390625 25.15625 -35.644531 25.15625 -35.90625 L 25.15625 -36.625 C 25.3125 -37.007812 25.515625 -37.304688 25.765625 -37.515625 C 26.023438 -37.722656 26.253906 -37.828125 26.453125 -37.828125 C 26.992188 -37.828125 27.472656 -37.234375 27.890625 -36.046875 Z M 19.96875 -20.640625 C 18.914062 -20.578125 17.722656 -20.515625 16.390625 -20.453125 C 15.066406 -20.390625 13.8125 -20.21875 12.625 -19.9375 C 11.4375 -19.664062 10.414062 -19.257812 9.5625 -18.71875 C 8.71875 -18.175781 8.25 -17.425781 8.15625 -16.46875 C 8.15625 -15.40625 8.378906 -14.21875 8.828125 -12.90625 C 9.273438 -11.59375 9.867188 -10.351562 10.609375 -9.1875 C 11.347656 -8.019531 12.1875 -7.019531 13.125 -6.1875 C 14.070312 -5.351562 15.054688 -4.890625 16.078125 -4.796875 L 18.8125 -4.796875 C 18.976562 -4.796875 19.097656 -4.785156 19.171875 -4.765625 C 19.253906 -4.753906 19.375 -4.71875 19.53125 -4.65625 L 20.6875 -4.65625 C 21.164062 -4.5625 21.644531 -4.515625 22.125 -4.515625 C 22.125 -7.203125 22.242188 -9.960938 22.484375 -12.796875 C 22.722656 -15.628906 22.988281 -18.40625 23.28125 -21.125 C 22.863281 -20.800781 21.757812 -20.640625 19.96875 -20.640625 Z M 23.421875 -10.703125 C 23.421875 -10.347656 23.394531 -9.988281 23.34375 -9.625 C 23.300781 -9.257812 23.28125 -8.851562 23.28125 -8.40625 C 23.632812 -10.195312 23.84375 -12.082031 23.90625 -14.0625 C 23.96875 -16.050781 24.046875 -17.957031 24.140625 -19.78125 C 23.984375 -18.238281 23.863281 -16.722656 23.78125 -15.234375 C 23.695312 -13.753906 23.578125 -12.242188 23.421875 -10.703125 Z M 27.59375 -5.515625 C 27.59375 -5.867188 27.609375 -6.226562 27.640625 -6.59375 C 27.679688 -6.96875 27.734375 -7.363281 27.796875 -7.78125 C 27.765625 -6.820312 27.75 -5.914062 27.75 -5.0625 C 27.75 -4.21875 27.695312 -3.617188 27.59375 -3.265625 C 27.59375 -3.421875 27.597656 -3.570312 27.609375 -3.71875 C 27.628906 -3.863281 27.640625 -4.015625 27.640625 -4.171875 C 27.640625 -4.429688 27.628906 -4.671875 27.609375 -4.890625 C 27.597656 -5.117188 27.59375 -5.328125 27.59375 -5.515625 Z M 28.3125 -13.296875 C 28.25 -13.140625 28.203125 -12.957031 28.171875 -12.75 C 28.140625 -12.539062 28.09375 -12.320312 28.03125 -12.09375 L 28.21875 -15.03125 Z M 27.890625 -9.546875 C 27.890625 -9.265625 27.878906 -8.976562 27.859375 -8.6875 C 27.847656 -8.394531 27.828125 -8.125 27.796875 -7.875 C 27.796875 -8.507812 27.8125 -9.15625 27.84375 -9.8125 C 27.875 -10.46875 27.921875 -11.066406 27.984375 -11.609375 Z M 23.140625 -6.578125 C 23.171875 -6.703125 23.1875 -6.828125 23.1875 -6.953125 C 23.1875 -7.085938 23.21875 -7.234375 23.28125 -7.390625 L 23.28125 -7.921875 C 23.25 -7.859375 23.234375 -7.800781 23.234375 -7.75 C 23.234375 -7.707031 23.21875 -7.664062 23.1875 -7.625 L 23.140625 -7.53125 Z M 22.984375 -4.265625 C 23.023438 -4.554688 23.0625 -4.851562 23.09375 -5.15625 C 23.125 -5.457031 23.140625 -5.769531 23.140625 -6.09375 L 23.140625 -6.234375 L 22.9375 -4.375 Z M 22.984375 -4.265625 "/></g></g></g><g fill="#ffffff" fill-opacity="1"><g transform="translate(250.96059, 212.725035)"><g><path d="M 19.875 0.859375 C 18.65625 1.273438 17.722656 1.503906 17.078125 1.546875 C 16.441406 1.597656 15.882812 1.644531 15.40625 1.6875 C 13.613281 1.6875 12 1.347656 10.5625 0.671875 C 9.125 -0.00390625 7.890625 -0.914062 6.859375 -2.0625 C 5.835938 -3.21875 5.046875 -4.570312 4.484375 -6.125 C 3.921875 -7.675781 3.640625 -9.332031 3.640625 -11.09375 C 3.640625 -12.113281 3.734375 -13.175781 3.921875 -14.28125 C 4.117188 -15.382812 4.410156 -16.472656 4.796875 -17.546875 C 5.179688 -18.617188 5.675781 -19.617188 6.28125 -20.546875 C 6.863281 -21.472656 7.554688 -22.304688 8.359375 -23.046875 C 7.523438 -22.367188 6.816406 -21.566406 6.234375 -20.640625 C 5.628906 -19.710938 5.117188 -18.710938 4.703125 -17.640625 C 4.285156 -16.566406 3.976562 -15.460938 3.78125 -14.328125 C 3.59375 -13.191406 3.5 -12.097656 3.5 -11.046875 C 3.5 -9.703125 3.710938 -8.269531 4.140625 -6.75 C 4.578125 -5.226562 5.273438 -3.816406 6.234375 -2.515625 C 7.203125 -1.222656 8.441406 -0.144531 9.953125 0.71875 C 11.472656 1.582031 13.320312 2.015625 15.5 2.015625 C 16.53125 2.015625 17.601562 1.867188 18.71875 1.578125 C 17.5 2.378906 16.140625 2.78125 14.640625 2.78125 C 13.421875 2.78125 12.273438 2.597656 11.203125 2.234375 C 10.128906 1.867188 9.132812 1.359375 8.21875 0.703125 C 7.3125 0.046875 6.488281 -0.726562 5.75 -1.625 C 5.019531 -2.519531 4.398438 -3.484375 3.890625 -4.515625 L 4.3125 -4.890625 C 3.769531 -5.984375 3.378906 -7.070312 3.140625 -8.15625 C 2.898438 -9.25 2.78125 -10.351562 2.78125 -11.46875 C 2.78125 -13.101562 3.007812 -14.671875 3.46875 -16.171875 C 3.9375 -17.679688 4.554688 -19.109375 5.328125 -20.453125 L 6.484375 -22.03125 C 6.671875 -22.382812 6.945312 -22.734375 7.3125 -23.078125 C 7.6875 -23.429688 8.097656 -23.773438 8.546875 -24.109375 C 8.992188 -24.453125 9.460938 -24.757812 9.953125 -25.03125 C 10.453125 -25.300781 10.925781 -25.550781 11.375 -25.78125 C 12.53125 -26.351562 13.679688 -26.867188 14.828125 -27.328125 C 15.984375 -27.796875 17.328125 -28.144531 18.859375 -28.375 L 18.671875 -28.515625 C 15.722656 -28.222656 13.222656 -27.507812 11.171875 -26.375 C 9.128906 -25.238281 7.46875 -23.851562 6.1875 -22.21875 C 4.90625 -20.59375 3.976562 -18.8125 3.40625 -16.875 C 2.832031 -14.9375 2.546875 -13.039062 2.546875 -11.1875 C 2.546875 -10.195312 2.632812 -9.195312 2.8125 -8.1875 C 2.988281 -7.175781 3.25 -6.175781 3.59375 -5.1875 C 2.800781 -7.101562 2.40625 -9.132812 2.40625 -11.28125 C 2.40625 -13.394531 2.753906 -15.488281 3.453125 -17.5625 C 4.160156 -19.644531 5.265625 -21.566406 6.765625 -23.328125 C 8.679688 -25.085938 10.773438 -26.4375 13.046875 -27.375 C 15.328125 -28.320312 17.519531 -28.796875 19.625 -28.796875 C 20.300781 -28.796875 20.988281 -28.679688 21.6875 -28.453125 C 22.394531 -28.234375 23.035156 -27.890625 23.609375 -27.421875 C 24.191406 -26.960938 24.664062 -26.363281 25.03125 -25.625 C 25.394531 -24.894531 25.578125 -24 25.578125 -22.9375 C 25.578125 -22.070312 25.367188 -21.015625 24.953125 -19.765625 C 24.546875 -18.523438 23.929688 -17.320312 23.109375 -16.15625 C 22.296875 -14.988281 21.28125 -13.992188 20.0625 -13.171875 C 18.84375 -12.359375 17.4375 -11.953125 15.84375 -11.953125 L 14.25 -11.953125 C 13.070312 -12.210938 11.992188 -12.507812 11.015625 -12.84375 C 10.035156 -13.175781 9.113281 -13.4375 8.25 -13.625 C 8.125 -13.113281 8.050781 -12.625 8.03125 -12.15625 C 8.019531 -11.695312 8.015625 -11.242188 8.015625 -10.796875 C 8.015625 -9.867188 8.117188 -8.960938 8.328125 -8.078125 C 8.535156 -7.203125 8.863281 -6.394531 9.3125 -5.65625 C 9.757812 -4.925781 10.328125 -4.3125 11.015625 -3.8125 C 11.703125 -3.320312 12.539062 -3.007812 13.53125 -2.875 C 14.144531 -2.75 14.675781 -2.675781 15.125 -2.65625 C 15.570312 -2.644531 15.945312 -2.628906 16.25 -2.609375 C 16.550781 -2.597656 16.773438 -2.550781 16.921875 -2.46875 C 17.066406 -2.394531 17.140625 -2.242188 17.140625 -2.015625 C 16.816406 -1.921875 16.484375 -1.859375 16.140625 -1.828125 C 15.804688 -1.796875 15.46875 -1.78125 15.125 -1.78125 C 14 -1.78125 12.988281 -1.960938 12.09375 -2.328125 C 11.195312 -2.691406 10.429688 -3.113281 9.796875 -3.59375 C 10.523438 -2.863281 11.398438 -2.34375 12.421875 -2.03125 C 13.453125 -1.726562 14.460938 -1.578125 15.453125 -1.578125 C 15.992188 -1.578125 16.554688 -1.628906 17.140625 -1.734375 C 17.078125 -1.535156 17.046875 -1.421875 17.046875 -1.390625 C 17.046875 -1.203125 17.125 -1.078125 17.28125 -1.015625 C 17.40625 -1.046875 17.628906 -1.128906 17.953125 -1.265625 C 18.273438 -1.410156 18.601562 -1.554688 18.9375 -1.703125 C 19.269531 -1.847656 19.597656 -1.972656 19.921875 -2.078125 C 20.242188 -2.191406 20.46875 -2.25 20.59375 -2.25 C 20.75 -2.25 20.890625 -2.222656 21.015625 -2.171875 C 21.148438 -2.128906 21.21875 -1.945312 21.21875 -1.625 C 21.21875 -1.3125 21.101562 -0.929688 20.875 -0.484375 C 20.65625 -0.0351562 20.320312 0.410156 19.875 0.859375 Z M 13.25 -18.140625 L 14.296875 -17.953125 C 14.648438 -17.890625 14.972656 -17.859375 15.265625 -17.859375 C 15.585938 -17.859375 15.960938 -17.960938 16.390625 -18.171875 C 16.828125 -18.378906 17.257812 -18.671875 17.6875 -19.046875 C 18.125 -19.429688 18.507812 -19.910156 18.84375 -20.484375 C 19.175781 -21.066406 19.421875 -21.726562 19.578125 -22.46875 L 19.6875 -22.75 C 19.238281 -22.75 18.5625 -22.632812 17.65625 -22.40625 C 16.757812 -22.1875 15.832031 -21.890625 14.875 -21.515625 C 13.914062 -21.148438 13.019531 -20.71875 12.1875 -20.21875 C 11.351562 -19.726562 10.78125 -19.195312 10.46875 -18.625 C 10.945312 -18.53125 11.414062 -18.441406 11.875 -18.359375 C 12.34375 -18.273438 12.800781 -18.203125 13.25 -18.140625 Z M 11.046875 -14.59375 C 11.109375 -14.65625 11.144531 -14.75 11.15625 -14.875 C 11.175781 -15.007812 11.1875 -15.109375 11.1875 -15.171875 L 8.921875 -15.984375 L 8.6875 -15.3125 Z M 9.703125 -3.703125 C 9.472656 -3.953125 9.25 -4.207031 9.03125 -4.46875 C 8.832031 -4.6875 8.671875 -4.910156 8.546875 -5.140625 C 8.828125 -4.585938 9.210938 -4.109375 9.703125 -3.703125 Z M 9.703125 -3.703125 "/></g></g></g><g fill="#ffffff" fill-opacity="1"><g transform="translate(278.457879, 212.725035)"><g/></g></g><g fill="#ffffff" fill-opacity="1"><g transform="translate(295.253777, 212.725035)"><g><path d="M 20.453125 -32.015625 C 20.765625 -32.015625 20.984375 -31.894531 21.109375 -31.65625 C 21.242188 -31.414062 21.3125 -31.164062 21.3125 -30.90625 C 21.3125 -29.789062 20.984375 -28.457031 20.328125 -26.90625 C 19.671875 -25.351562 18.835938 -23.679688 17.828125 -21.890625 C 16.816406 -20.097656 15.734375 -18.222656 14.578125 -16.265625 C 13.429688 -14.316406 12.351562 -12.390625 11.34375 -10.484375 C 10.34375 -8.578125 9.515625 -6.742188 8.859375 -4.984375 C 8.203125 -3.234375 7.875 -1.632812 7.875 -0.1875 C 7.875 -0.03125 7.878906 0.171875 7.890625 0.421875 C 7.910156 0.679688 7.921875 0.988281 7.921875 1.34375 C 7.921875 1.851562 7.867188 2.335938 7.765625 2.796875 C 7.671875 3.265625 7.453125 3.515625 7.109375 3.546875 L 6.90625 3.21875 C 6.9375 2.15625 6.988281 1.097656 7.0625 0.046875 C 7.125 -0.941406 7.234375 -1.914062 7.390625 -2.875 C 6.941406 -0.769531 6.71875 1.351562 6.71875 3.5 L 5.90625 3.5 L 6 4.5625 C 5.9375 4.8125 5.820312 5.085938 5.65625 5.390625 C 5.5 5.703125 5.257812 5.859375 4.9375 5.859375 C 4.59375 5.859375 4.28125 5.710938 4 5.421875 C 3.726562 5.128906 3.515625 4.859375 3.359375 4.609375 C 3.359375 1.148438 3.765625 -2.070312 4.578125 -5.0625 C 5.398438 -8.050781 6.578125 -11.082031 8.109375 -14.15625 C 6.578125 -11.34375 5.382812 -8.414062 4.53125 -5.375 C 3.6875 -2.332031 3.164062 0.785156 2.96875 3.984375 C 2.59375 3.273438 2.40625 2.507812 2.40625 1.6875 C 2.40625 0.625 2.457031 -0.390625 2.5625 -1.359375 C 2.675781 -2.335938 2.863281 -3.34375 3.125 -4.375 L 3.75 -4.46875 C 3.9375 -5.84375 4.273438 -7.175781 4.765625 -8.46875 C 5.265625 -9.769531 5.816406 -11.035156 6.421875 -12.265625 C 7.035156 -13.492188 7.671875 -14.71875 8.328125 -15.9375 C 8.984375 -17.15625 9.582031 -18.40625 10.125 -19.6875 L 9.84375 -19.78125 C 8.5625 -17.34375 7.3125 -14.910156 6.09375 -12.484375 C 4.976562 -10.179688 4.066406 -7.75 3.359375 -5.1875 C 3.804688 -7.101562 4.414062 -8.972656 5.1875 -10.796875 C 6.019531 -12.753906 6.914062 -14.675781 7.875 -16.5625 C 8.832031 -18.445312 9.835938 -20.304688 10.890625 -22.140625 C 11.953125 -23.984375 12.960938 -25.835938 13.921875 -27.703125 C 14.367188 -28.523438 14.835938 -29.3125 15.328125 -30.0625 C 15.828125 -30.820312 16.253906 -31.617188 16.609375 -32.453125 C 16.796875 -32.347656 17.070312 -32.238281 17.4375 -32.125 C 17.8125 -32.019531 18 -31.835938 18 -31.578125 C 18 -31.390625 17.941406 -31.164062 17.828125 -30.90625 C 17.710938 -30.65625 17.609375 -30.429688 17.515625 -30.234375 L 18 -30 C 18.257812 -30.382812 18.601562 -30.816406 19.03125 -31.296875 C 19.46875 -31.773438 19.941406 -32.015625 20.453125 -32.015625 Z M 3.265625 -4.796875 C 3.296875 -4.921875 3.328125 -5.050781 3.359375 -5.1875 C 3.328125 -5.050781 3.296875 -4.921875 3.265625 -4.796875 Z M 3.265625 -4.796875 "/></g></g></g><g fill="#ffffff" fill-opacity="1"><g transform="translate(318.960005, 212.725035)"><g><path d="M 6.09375 -25.015625 C 7.4375 -25.015625 9.082031 -24.875 11.03125 -24.59375 C 12.988281 -24.320312 14.972656 -23.929688 16.984375 -23.421875 C 19.003906 -22.910156 20.910156 -22.296875 22.703125 -21.578125 C 24.492188 -20.859375 25.882812 -20.066406 26.875 -19.203125 C 27.550781 -18.585938 28.132812 -17.921875 28.625 -17.203125 C 29.125 -16.484375 29.628906 -15.757812 30.140625 -15.03125 C 28.097656 -13.84375 26.335938 -12.984375 24.859375 -12.453125 C 23.390625 -11.921875 22.003906 -11.503906 20.703125 -11.203125 C 19.410156 -10.898438 18.109375 -10.585938 16.796875 -10.265625 C 15.484375 -9.953125 14 -9.425781 12.34375 -8.6875 C 11.988281 -8.53125 11.578125 -8.304688 11.109375 -8.015625 C 10.648438 -7.722656 10.171875 -7.425781 9.671875 -7.125 C 9.171875 -6.820312 8.6875 -6.550781 8.21875 -6.3125 C 7.757812 -6.070312 7.375 -5.953125 7.0625 -5.953125 L 6.484375 -6.484375 C 7.023438 -6.671875 7.550781 -6.875 8.0625 -7.09375 C 8.570312 -7.320312 9.050781 -7.613281 9.5 -7.96875 C 9.019531 -7.707031 8.523438 -7.484375 8.015625 -7.296875 C 7.503906 -7.109375 6.992188 -6.929688 6.484375 -6.765625 L 6.234375 -7.484375 L 5.5625 -7.25 C 5.25 -7.15625 5.054688 -7.109375 4.984375 -7.109375 C 4.703125 -7.109375 4.414062 -7.175781 4.125 -7.3125 C 3.84375 -7.457031 3.703125 -7.707031 3.703125 -8.0625 C 3.703125 -8.507812 3.828125 -8.867188 4.078125 -9.140625 C 4.335938 -9.410156 4.660156 -9.628906 5.046875 -9.796875 C 5.835938 -10.109375 6.617188 -10.457031 7.390625 -10.84375 C 8.160156 -11.226562 8.925781 -11.617188 9.6875 -12.015625 C 10.457031 -12.421875 11.234375 -12.800781 12.015625 -13.15625 C 12.804688 -13.507812 13.617188 -13.796875 14.453125 -14.015625 C 13.585938 -13.859375 12.769531 -13.59375 12 -13.21875 C 11.226562 -12.851562 10.457031 -12.46875 9.6875 -12.0625 C 8.925781 -11.664062 8.148438 -11.285156 7.359375 -10.921875 C 6.578125 -10.554688 5.753906 -10.304688 4.890625 -10.171875 C 5.921875 -11.296875 7.160156 -12.1875 8.609375 -12.84375 C 10.066406 -13.5 11.5 -14.097656 12.90625 -14.640625 L 13.0625 -14.15625 C 14.175781 -14.632812 15.332031 -15.035156 16.53125 -15.359375 C 17.738281 -15.679688 18.945312 -15.953125 20.15625 -16.171875 L 19.6875 -16.375 C 18.625 -16.019531 17.535156 -15.726562 16.421875 -15.5 C 15.359375 -15.3125 14.285156 -15.054688 13.203125 -14.734375 C 14.222656 -15.085938 15.242188 -15.410156 16.265625 -15.703125 C 17.328125 -15.984375 18.398438 -16.222656 19.484375 -16.421875 C 19.035156 -16.609375 18.394531 -16.820312 17.5625 -17.0625 C 16.726562 -17.300781 15.804688 -17.546875 14.796875 -17.796875 C 13.796875 -18.054688 12.742188 -18.304688 11.640625 -18.546875 C 10.535156 -18.785156 9.46875 -19 8.4375 -19.1875 C 7.414062 -19.382812 6.484375 -19.539062 5.640625 -19.65625 C 4.796875 -19.769531 4.128906 -19.828125 3.640625 -19.828125 C 3.640625 -19.890625 3.648438 -19.9375 3.671875 -19.96875 C 3.691406 -20 3.703125 -20.046875 3.703125 -20.109375 C 3.703125 -20.367188 3.664062 -20.625 3.59375 -20.875 C 3.695312 -21.132812 3.851562 -21.300781 4.0625 -21.375 C 4.269531 -21.457031 4.5 -21.5 4.75 -21.5 C 4.90625 -21.5 5.0625 -21.488281 5.21875 -21.46875 C 5.382812 -21.457031 5.550781 -21.4375 5.71875 -21.40625 L 5.765625 -21.9375 C 5.566406 -21.96875 5.285156 -22.035156 4.921875 -22.140625 C 4.554688 -22.253906 4.179688 -22.390625 3.796875 -22.546875 C 3.410156 -22.710938 3.082031 -22.898438 2.8125 -23.109375 C 2.539062 -23.316406 2.40625 -23.550781 2.40625 -23.8125 C 2.40625 -24.09375 2.5625 -24.3125 2.875 -24.46875 C 3.195312 -24.632812 3.554688 -24.753906 3.953125 -24.828125 C 4.359375 -24.910156 4.769531 -24.960938 5.1875 -24.984375 C 5.601562 -25.003906 5.90625 -25.015625 6.09375 -25.015625 Z M 20.453125 -16.265625 L 21.03125 -16.421875 L 17.375 -17.765625 L 16.84375 -17.609375 Z M 15.640625 -14.359375 C 16.703125 -14.578125 17.890625 -14.835938 19.203125 -15.140625 C 20.515625 -15.441406 21.632812 -15.769531 22.5625 -16.125 L 22.375 -16.171875 Z M 23.5625 -12.671875 C 22.351562 -12.316406 21.128906 -12.035156 19.890625 -11.828125 C 18.660156 -11.617188 17.4375 -11.320312 16.21875 -10.9375 C 17.4375 -11.195312 18.660156 -11.4375 19.890625 -11.65625 C 21.128906 -11.882812 22.351562 -12.222656 23.5625 -12.671875 Z M 15.640625 -14.359375 C 15.609375 -14.359375 15.578125 -14.335938 15.546875 -14.296875 Z M 15.640625 -14.359375 "/></g></g></g></svg>