<svg xmlns="http://www.w3.org/2000/svg" xmlns:xlink="http://www.w3.org/1999/xlink" width="500" zoomAndPan="magnify" viewBox="0 0 375 374.999991" height="500" preserveAspectRatio="xMidYMid meet" version="1.0"><defs><g/></defs><g fill="#98d8f8" fill-opacity="1"><g transform="translate(21.684697, 211.874986)"><g><path d="M 49.402344 -20.828125 C 49.402344 -32.742188 40.238281 -42.570312 28.242188 -42.570312 C 22.492188 -42.570312 18.328125 -40.238281 15.664062 -37.15625 L 15.664062 -58.316406 L 4.414062 -58.316406 L 4.414062 0 L 15.664062 0 L 15.664062 -4.5 C 18.328125 -1.417969 22.492188 0.917969 28.242188 0.917969 C 40.238281 0.917969 49.402344 -8.914062 49.402344 -20.828125 Z M 37.574219 -20.828125 C 37.574219 -14.828125 32.65625 -9.832031 26.660156 -9.832031 C 20.578125 -9.832031 15.664062 -14.828125 15.664062 -20.828125 C 15.664062 -26.910156 20.578125 -31.824219 26.660156 -31.824219 C 32.65625 -31.824219 37.574219 -26.910156 37.574219 -20.828125 Z M 37.574219 -20.828125 "/></g></g></g><g fill="#98d8f8" fill-opacity="1"><g transform="translate(73.252664, 211.874986)"><g><path d="M 15.664062 -31.492188 L 27.324219 -31.492188 L 27.324219 -41.65625 L 4.414062 -41.65625 L 4.414062 0 L 15.664062 0 Z M 15.664062 -31.492188 "/></g></g></g><g fill="#98d8f8" fill-opacity="1"><g transform="translate(102.244025, 211.874986)"><g><path d="M 47.152344 -20.828125 C 47.152344 -32.742188 37.738281 -42.570312 24.742188 -42.570312 C 11.664062 -42.570312 2.167969 -32.742188 2.167969 -20.828125 C 2.167969 -8.914062 11.664062 0.917969 24.742188 0.917969 C 37.738281 0.917969 47.152344 -8.914062 47.152344 -20.828125 Z M 35.40625 -20.828125 C 35.40625 -14.828125 30.65625 -9.914062 24.742188 -9.914062 C 18.660156 -9.914062 13.996094 -14.828125 13.996094 -20.828125 C 13.996094 -26.910156 18.660156 -31.824219 24.742188 -31.824219 C 30.65625 -31.824219 35.40625 -26.910156 35.40625 -20.828125 Z M 35.40625 -20.828125 "/></g></g></g><g fill="#009ae7" fill-opacity="1"><g transform="translate(151.551876, 211.874986)"><g/></g></g><g fill="#b1afff" fill-opacity="1"><g transform="translate(164.044062, 211.874986)"><g><path d="M 40.40625 -4.414062 L 40.40625 -16.496094 C 36.574219 -12.996094 30.992188 -9.996094 25.492188 -9.996094 C 18.910156 -9.996094 14.078125 -14.414062 14.078125 -21.242188 C 14.078125 -27.910156 18.746094 -31.90625 24.410156 -31.90625 C 29.492188 -31.90625 33.324219 -28.574219 40.40625 -29.910156 L 40.40625 -40.988281 C 34.40625 -39.90625 30.160156 -42.570312 23.578125 -42.570312 C 12.164062 -42.570312 2.167969 -34.40625 2.167969 -20.828125 C 2.167969 -7.246094 12.164062 0.917969 24.578125 0.917969 C 32.742188 0.917969 38.074219 -2.582031 40.40625 -4.414062 Z M 40.40625 -4.414062 "/></g></g></g><g fill="#b1afff" fill-opacity="1"><g transform="translate(207.781032, 211.874986)"><g><path d="M 47.152344 -20.828125 C 47.152344 -32.742188 37.738281 -42.570312 24.742188 -42.570312 C 11.664062 -42.570312 2.167969 -32.742188 2.167969 -20.828125 C 2.167969 -8.914062 11.664062 0.917969 24.742188 0.917969 C 37.738281 0.917969 47.152344 -8.914062 47.152344 -20.828125 Z M 35.40625 -20.828125 C 35.40625 -14.828125 30.65625 -9.914062 24.742188 -9.914062 C 18.660156 -9.914062 13.996094 -14.828125 13.996094 -20.828125 C 13.996094 -26.910156 18.660156 -31.824219 24.742188 -31.824219 C 30.65625 -31.824219 35.40625 -26.910156 35.40625 -20.828125 Z M 35.40625 -20.828125 "/></g></g></g><g fill="#b1afff" fill-opacity="1"><g transform="translate(257.099675, 211.874986)"><g><path d="M 35.988281 0 L 47.238281 0 L 47.238281 -58.316406 L 35.988281 -58.316406 L 35.988281 -37.15625 C 33.324219 -40.238281 29.160156 -42.570312 23.410156 -42.570312 C 11.414062 -42.570312 2.167969 -32.742188 2.167969 -20.828125 C 2.167969 -8.914062 11.414062 0.917969 23.410156 0.917969 C 29.160156 0.917969 33.324219 -1.417969 35.988281 -4.5 Z M 35.988281 -20.828125 C 35.988281 -14.828125 31.074219 -9.832031 24.992188 -9.832031 C 18.996094 -9.832031 14.078125 -14.828125 14.078125 -20.828125 C 14.078125 -26.910156 18.996094 -31.824219 24.992188 -31.824219 C 31.074219 -31.824219 35.988281 -26.910156 35.988281 -20.828125 Z M 35.988281 -20.828125 "/></g></g></g><g fill="#b1afff" fill-opacity="1"><g transform="translate(308.750955, 211.874986)"><g><path d="M 24.992188 -18.410156 C 27.324219 -18.410156 32.574219 -18.578125 35.988281 -20.410156 C 39.15625 -22.078125 41.40625 -25.574219 41.40625 -29.824219 C 41.40625 -36.65625 35.488281 -42.570312 24.742188 -42.570312 C 11.164062 -42.570312 2.25 -33.242188 2.25 -20.496094 C 2.25 -8.496094 10.414062 0.917969 25.328125 0.917969 C 32.074219 0.917969 37.65625 -1.167969 41.238281 -3.914062 L 41.238281 -16.164062 C 38.238281 -13.078125 33.40625 -9.664062 26.492188 -9.664062 C 18.910156 -9.664062 14.246094 -13.328125 13.996094 -19.746094 C 16.410156 -18.996094 20.746094 -18.410156 24.992188 -18.410156 Z M 22.328125 -26.324219 C 18.910156 -26.324219 16.496094 -26.660156 15.078125 -26.992188 C 16.660156 -30.992188 19.996094 -32.824219 24.242188 -32.824219 C 27.074219 -32.824219 29.660156 -31.992188 29.660156 -29.492188 C 29.660156 -26.910156 26.910156 -26.324219 22.328125 -26.324219 Z M 22.328125 -26.324219 "/></g></g></g></svg>