<svg xmlns="http://www.w3.org/2000/svg" xmlns:xlink="http://www.w3.org/1999/xlink" width="500" zoomAndPan="magnify" viewBox="0 0 375 374.999991" height="500" preserveAspectRatio="xMidYMid meet" version="1.0"><defs><g/><clipPath id="0962e4ae15"><path d="M 97 134 L 201 134 L 201 223.5625 L 97 223.5625 Z M 97 134 " clip-rule="nonzero"/></clipPath></defs><g fill="#b1afff" fill-opacity="1"><g transform="translate(42.457257, 226.148545)"><g><path d="M 46.6875 -100.578125 C 46.726562 -98.773438 46.207031 -97.148438 45.125 -95.703125 C 44.757812 -95.179688 44.257812 -94.582031 43.625 -93.90625 L 42.0625 -92.28125 C 34.851562 -84.226562 26.28125 -74.859375 16.34375 -64.171875 C 15.78125 -63.566406 15.578125 -62.984375 15.734375 -62.421875 L 16.15625 -61.765625 L 16.640625 -61.15625 C 21.367188 -55.394531 26.316406 -48.023438 31.484375 -39.046875 C 35.609375 -31.796875 40.035156 -23.1875 44.765625 -13.21875 L 50.953125 -0.125 L 57.015625 13.09375 L 57.984375 15.078125 L 58.875 17.125 C 59.5625 18.644531 59.984375 20.046875 60.140625 21.328125 C 60.335938 22.566406 59.914062 23.226562 58.875 23.3125 L 57.796875 23.484375 L 56.71875 23.609375 C 55.914062 23.734375 55.273438 23.691406 54.796875 23.484375 L 52.75 22.65625 L 50.703125 21.9375 C 48.859375 21.289062 47.476562 20.785156 46.5625 20.421875 C 43.476562 19.023438 41.175781 17.144531 39.65625 14.78125 C 38.414062 12.78125 36.875 10.457031 35.03125 7.8125 L 30.21875 1.015625 C 26.21875 -4.628906 23.210938 -9.351562 21.203125 -13.15625 C 18.597656 -18.125 15.734375 -24.234375 12.609375 -31.484375 L 8.71875 -40.796875 L 4.75 -50.109375 L 0.96875 -58.453125 C 0.320312 -59.898438 0.582031 -60.800781 1.75 -61.15625 C 2.1875 -61.28125 2.460938 -61.539062 2.578125 -61.9375 C 3.703125 -65.300781 5.867188 -68.769531 9.078125 -72.34375 L 11.171875 -74.5625 L 13.34375 -76.71875 C 15.21875 -78.644531 16.617188 -80.109375 17.546875 -81.109375 C 20.429688 -84.359375 23.957031 -88.125 28.125 -92.40625 L 33.53125 -97.875 L 39 -103.40625 L 39.890625 -104.421875 L 40.859375 -105.390625 C 41.691406 -106.023438 42.570312 -106.125 43.5 -105.6875 C 44.582031 -105.207031 45.382812 -104.445312 45.90625 -103.40625 C 46.34375 -102.601562 46.601562 -101.660156 46.6875 -100.578125 Z M 46.6875 -100.578125 "/></g></g></g><g fill="#b1afff" fill-opacity="1"><g transform="translate(114.905293, 226.148545)"><g/></g></g><g fill="#b1afff" fill-opacity="1"><g transform="translate(150.954538, 226.148545)"><g/></g></g><g fill="#b1afff" fill-opacity="1"><g transform="translate(187.003784, 226.148545)"><g/></g></g><g fill="#b1afff" fill-opacity="1"><g transform="translate(223.045567, 226.148545)"><g><path d="M 18.203125 -9.25 C 19.484375 -16.21875 21.488281 -25.148438 24.21875 -36.046875 L 25.953125 -42.953125 L 27.703125 -49.921875 C 29.097656 -55.535156 30.28125 -60.320312 31.25 -64.28125 C 31.644531 -66.082031 32.179688 -68.285156 32.859375 -70.890625 L 33.765625 -74.4375 L 34.734375 -78.109375 C 36.410156 -84.390625 37.609375 -89.414062 38.328125 -93.1875 C 39.328125 -98.46875 38.546875 -102.050781 35.984375 -103.9375 C 34.785156 -104.78125 33.265625 -105.039062 31.421875 -104.71875 C 29.535156 -104.394531 28.175781 -103.59375 27.34375 -102.3125 C 24.894531 -98.507812 23.347656 -95.066406 22.703125 -91.984375 L 20.78125 -83.09375 L 18.6875 -74.140625 C 16.925781 -66.523438 15.625 -60.597656 14.78125 -56.359375 C 13.976562 -52.148438 12.976562 -47.28125 11.78125 -41.75 L 8.46875 -27.15625 C 5.707031 -14.820312 3.742188 -5.109375 2.578125 1.984375 L 1.5625 8.40625 C 1.195312 10.769531 0.9375 12.875 0.78125 14.71875 C 0.257812 20.601562 2.78125 22.882812 8.34375 21.5625 L 9.796875 21.328125 C 10.359375 21.242188 10.796875 21.125 11.109375 20.96875 C 12.078125 20.570312 12.703125 19.59375 12.984375 18.03125 Z M 18.203125 -9.25 "/></g></g></g><g fill="#b1afff" fill-opacity="1"><g transform="translate(275.49722, 226.148545)"><g><path d="M 9.125 4.265625 C 9.09375 1.503906 9.816406 -1.71875 11.296875 -5.40625 L 13.390625 -10.09375 C 14.273438 -12.09375 14.957031 -13.675781 15.4375 -14.84375 C 17.800781 -21.207031 21.144531 -29.414062 25.46875 -39.46875 L 30.703125 -51.671875 L 35.8125 -63.921875 C 36.164062 -64.847656 35.960938 -65.671875 35.203125 -66.390625 C 33.597656 -67.953125 31.175781 -69.992188 27.9375 -72.515625 L 24.21875 -75.46875 L 20.609375 -78.53125 C 14.765625 -83.851562 8.992188 -91.0625 3.296875 -100.15625 L 2.21875 -101.890625 C 1.820312 -102.535156 1.421875 -103.039062 1.015625 -103.40625 C 0.335938 -104.082031 0.21875 -104.800781 0.65625 -105.5625 C 1.019531 -106.207031 1.703125 -106.390625 2.703125 -106.109375 C 9.304688 -103.941406 15.59375 -99.875 21.5625 -93.90625 L 27.453125 -88.140625 L 33.28125 -82.3125 C 36.164062 -79.34375 38.3125 -76.5 39.71875 -73.78125 C 40.4375 -72.375 41.457031 -70.910156 42.78125 -69.390625 L 44.578125 -67.40625 L 46.390625 -65.421875 L 47.578125 -64.109375 C 48.023438 -63.585938 48.390625 -63.109375 48.671875 -62.671875 L 49.5 -61.21875 C 49.78125 -60.695312 49.984375 -60.238281 50.109375 -59.84375 C 50.429688 -58.71875 50.226562 -57.554688 49.5 -56.359375 C 47.625 -53.191406 45.742188 -49.125 43.859375 -44.15625 L 41.515625 -37.796875 L 39.171875 -31.484375 C 37.929688 -28.359375 36.007812 -23.75 33.40625 -17.65625 L 30.515625 -10.75 L 27.640625 -3.84375 L 26.796875 -1.203125 L 26.140625 1.5 C 25.578125 3.90625 25.054688 5.6875 24.578125 6.84375 C 22.847656 10.9375 20.320312 12.960938 17 12.921875 L 15.6875 13.09375 L 14.296875 13.390625 C 13.253906 13.597656 12.375 13.335938 11.65625 12.609375 C 9.769531 10.773438 8.925781 7.992188 9.125 4.265625 Z M 9.125 4.265625 "/></g></g></g><g clip-path="url(#0962e4ae15)"><path fill="#98d8f8" d="M 161.042969 134.28125 C 154.335938 134.488281 150.691406 141.796875 144.125 142.449219 C 134.3125 146.46875 123.585938 147.949219 113.894531 152.171875 C 107.394531 156.851562 103.636719 164.105469 99.113281 170.496094 C 95.25 180.210938 100.082031 190.460938 104.597656 199.035156 C 108.539062 205.777344 116.859375 206.824219 123.433594 209.664062 C 136.371094 214.308594 149.265625 219.4375 162.941406 221.449219 C 170.921875 222.796875 179.023438 223.511719 187.117188 223.355469 C 198.503906 220.9375 204.761719 205.640625 197.855469 196.140625 C 193.550781 184.828125 199.285156 173.1875 199.34375 161.710938 C 199.667969 154.488281 196.574219 146.230469 189.292969 143.558594 C 183.585938 141.804688 176.664062 143.972656 172.089844 138.988281 C 168.9375 136.484375 165.367188 133.59375 161.042969 134.28125 Z M 161.210938 137.816406 C 168.351562 137.132812 171.492188 146.5625 178.644531 145.839844 C 184.1875 145.808594 191.261719 146.550781 193.859375 152.273438 C 198.414062 162.835938 193.066406 174 193.074219 184.832031 C 192.792969 190.554688 187.945312 197.136719 181.59375 195.542969 C 175.511719 194.605469 169.839844 188.761719 171.296875 182.339844 C 171.507812 176.539062 175.53125 171.535156 175.234375 165.683594 C 169.046875 165.160156 170.238281 173.777344 168.652344 177.8125 C 167.617188 183.023438 167.214844 188.347656 167.363281 193.652344 C 165.40625 199.410156 157.796875 203.292969 152.339844 199.816406 C 146.226562 193.886719 147.089844 184.667969 147.679688 176.929688 C 147.058594 170.921875 153.339844 166.5625 152.292969 160.5 C 146.089844 161.445312 146.464844 169.054688 144.835938 173.675781 C 142.894531 181.765625 143.363281 190.421875 146.207031 198.246094 C 150.191406 202.195312 155.890625 206.398438 154.980469 212.738281 C 152.351562 217.609375 146.484375 214.695312 142.753906 212.949219 C 133.027344 209.597656 123.566406 205.402344 113.617188 202.699219 C 107.433594 198.503906 107.441406 190.214844 107.703125 183.539062 C 106.957031 178.414062 102.109375 185.46875 102.449219 184.664062 C 99.4375 178.0625 102.132812 170.359375 106.925781 165.355469 C 110.316406 160.546875 113.785156 155.039062 119.832031 153.359375 C 125.773438 151.335938 132.246094 151.101562 137.894531 148.195312 C 144.46875 146.023438 151.683594 144.601562 156.78125 139.527344 C 158.019531 138.507812 159.546875 137.675781 161.210938 137.816406 Z M 127.878906 168.8125 C 123.511719 176.015625 124.546875 184.820312 122.492188 192.714844 C 121.867188 198.359375 123.824219 205.070312 129.488281 207.453125 C 136.042969 211.109375 145.25 210.386719 150.382812 204.625 C 144.949219 200.976562 139.726562 209.03125 134.175781 206.121094 C 128.996094 203.898438 124.902344 198.609375 125.945312 192.734375 C 127.0625 185.183594 128.867188 177.734375 129.742188 170.144531 C 129.554688 169.328125 128.714844 168.726562 127.878906 168.8125 Z M 193.421875 193.726562 C 195.335938 199.308594 199.097656 205.554688 196.019531 211.425781 C 193.453125 217.859375 185.660156 221.792969 178.980469 219.703125 C 173.003906 221.332031 175.464844 213.351562 176.917969 210.753906 C 177.097656 206.582031 169.976562 199.550781 167.558594 204.242188 C 169.417969 207.65625 177.132812 211.75 170.660156 215.058594 C 166.238281 218.332031 157.636719 216.152344 157.691406 209.945312 C 158.566406 202.710938 167.101562 199.335938 173.570312 200.75 C 180.710938 201.355469 189.101562 200.128906 193.421875 193.726562 Z M 170.96875 193.804688 C 175.140625 193.230469 172.890625 199.601562 170.832031 196.210938 C 170.628906 195.410156 170.296875 194.46875 170.96875 193.804688 Z M 170.96875 193.804688 " fill-opacity="1" fill-rule="nonzero"/></g></svg>