<svg xmlns="http://www.w3.org/2000/svg" xmlns:xlink="http://www.w3.org/1999/xlink" width="500" zoomAndPan="magnify" viewBox="0 0 375 374.999991" height="500" preserveAspectRatio="xMidYMid meet" version="1.0"><defs><g/><clipPath id="921aff034d"><path d="M 97 78.179688 L 201 78.179688 L 201 168 L 97 168 Z M 97 78.179688 " clip-rule="nonzero"/></clipPath></defs><g fill="#b1afff" fill-opacity="1"><g transform="translate(42.457257, 170.766447)"><g><path d="M 46.6875 -100.578125 C 46.726562 -98.773438 46.207031 -97.148438 45.125 -95.703125 C 44.757812 -95.179688 44.257812 -94.582031 43.625 -93.90625 L 42.0625 -92.28125 C 34.851562 -84.226562 26.28125 -74.859375 16.34375 -64.171875 C 15.78125 -63.566406 15.578125 -62.984375 15.734375 -62.421875 L 16.15625 -61.765625 L 16.640625 -61.15625 C 21.367188 -55.394531 26.316406 -48.023438 31.484375 -39.046875 C 35.609375 -31.796875 40.035156 -23.1875 44.765625 -13.21875 L 50.953125 -0.125 L 57.015625 13.09375 L 57.984375 15.078125 L 58.875 17.125 C 59.5625 18.644531 59.984375 20.046875 60.140625 21.328125 C 60.335938 22.566406 59.914062 23.226562 58.875 23.3125 L 57.796875 23.484375 L 56.71875 23.609375 C 55.914062 23.734375 55.273438 23.691406 54.796875 23.484375 L 52.75 22.65625 L 50.703125 21.9375 C 48.859375 21.289062 47.476562 20.785156 46.5625 20.421875 C 43.476562 19.023438 41.175781 17.144531 39.65625 14.78125 C 38.414062 12.78125 36.875 10.457031 35.03125 7.8125 L 30.21875 1.015625 C 26.21875 -4.628906 23.210938 -9.351562 21.203125 -13.15625 C 18.597656 -18.125 15.734375 -24.234375 12.609375 -31.484375 L 8.71875 -40.796875 L 4.75 -50.109375 L 0.96875 -58.453125 C 0.320312 -59.898438 0.582031 -60.800781 1.75 -61.15625 C 2.1875 -61.28125 2.460938 -61.539062 2.578125 -61.9375 C 3.703125 -65.300781 5.867188 -68.769531 9.078125 -72.34375 L 11.171875 -74.5625 L 13.34375 -76.71875 C 15.21875 -78.644531 16.617188 -80.109375 17.546875 -81.109375 C 20.429688 -84.359375 23.957031 -88.125 28.125 -92.40625 L 33.53125 -97.875 L 39 -103.40625 L 39.890625 -104.421875 L 40.859375 -105.390625 C 41.691406 -106.023438 42.570312 -106.125 43.5 -105.6875 C 44.582031 -105.207031 45.382812 -104.445312 45.90625 -103.40625 C 46.34375 -102.601562 46.601562 -101.660156 46.6875 -100.578125 Z M 46.6875 -100.578125 "/></g></g></g><g fill="#b1afff" fill-opacity="1"><g transform="translate(114.905293, 170.766447)"><g/></g></g><g fill="#b1afff" fill-opacity="1"><g transform="translate(150.954538, 170.766447)"><g/></g></g><g fill="#b1afff" fill-opacity="1"><g transform="translate(187.003784, 170.766447)"><g/></g></g><g fill="#b1afff" fill-opacity="1"><g transform="translate(223.045567, 170.766447)"><g><path d="M 18.203125 -9.25 C 19.484375 -16.21875 21.488281 -25.148438 24.21875 -36.046875 L 25.953125 -42.953125 L 27.703125 -49.921875 C 29.097656 -55.535156 30.28125 -60.320312 31.25 -64.28125 C 31.644531 -66.082031 32.179688 -68.285156 32.859375 -70.890625 L 33.765625 -74.4375 L 34.734375 -78.109375 C 36.410156 -84.390625 37.609375 -89.414062 38.328125 -93.1875 C 39.328125 -98.46875 38.546875 -102.050781 35.984375 -103.9375 C 34.785156 -104.78125 33.265625 -105.039062 31.421875 -104.71875 C 29.535156 -104.394531 28.175781 -103.59375 27.34375 -102.3125 C 24.894531 -98.507812 23.347656 -95.066406 22.703125 -91.984375 L 20.78125 -83.09375 L 18.6875 -74.140625 C 16.925781 -66.523438 15.625 -60.597656 14.78125 -56.359375 C 13.976562 -52.148438 12.976562 -47.28125 11.78125 -41.75 L 8.46875 -27.15625 C 5.707031 -14.820312 3.742188 -5.109375 2.578125 1.984375 L 1.5625 8.40625 C 1.195312 10.769531 0.9375 12.875 0.78125 14.71875 C 0.257812 20.601562 2.78125 22.882812 8.34375 21.5625 L 9.796875 21.328125 C 10.359375 21.242188 10.796875 21.125 11.109375 20.96875 C 12.078125 20.570312 12.703125 19.59375 12.984375 18.03125 Z M 18.203125 -9.25 "/></g></g></g><g fill="#b1afff" fill-opacity="1"><g transform="translate(275.49722, 170.766447)"><g><path d="M 9.125 4.265625 C 9.09375 1.503906 9.816406 -1.71875 11.296875 -5.40625 L 13.390625 -10.09375 C 14.273438 -12.09375 14.957031 -13.675781 15.4375 -14.84375 C 17.800781 -21.207031 21.144531 -29.414062 25.46875 -39.46875 L 30.703125 -51.671875 L 35.8125 -63.921875 C 36.164062 -64.847656 35.960938 -65.671875 35.203125 -66.390625 C 33.597656 -67.953125 31.175781 -69.992188 27.9375 -72.515625 L 24.21875 -75.46875 L 20.609375 -78.53125 C 14.765625 -83.851562 8.992188 -91.0625 3.296875 -100.15625 L 2.21875 -101.890625 C 1.820312 -102.535156 1.421875 -103.039062 1.015625 -103.40625 C 0.335938 -104.082031 0.21875 -104.800781 0.65625 -105.5625 C 1.019531 -106.207031 1.703125 -106.390625 2.703125 -106.109375 C 9.304688 -103.941406 15.59375 -99.875 21.5625 -93.90625 L 27.453125 -88.140625 L 33.28125 -82.3125 C 36.164062 -79.34375 38.3125 -76.5 39.71875 -73.78125 C 40.4375 -72.375 41.457031 -70.910156 42.78125 -69.390625 L 44.578125 -67.40625 L 46.390625 -65.421875 L 47.578125 -64.109375 C 48.023438 -63.585938 48.390625 -63.109375 48.671875 -62.671875 L 49.5 -61.21875 C 49.78125 -60.695312 49.984375 -60.238281 50.109375 -59.84375 C 50.429688 -58.71875 50.226562 -57.554688 49.5 -56.359375 C 47.625 -53.191406 45.742188 -49.125 43.859375 -44.15625 L 41.515625 -37.796875 L 39.171875 -31.484375 C 37.929688 -28.359375 36.007812 -23.75 33.40625 -17.65625 L 30.515625 -10.75 L 27.640625 -3.84375 L 26.796875 -1.203125 L 26.140625 1.5 C 25.578125 3.90625 25.054688 5.6875 24.578125 6.84375 C 22.847656 10.9375 20.320312 12.960938 17 12.921875 L 15.6875 13.09375 L 14.296875 13.390625 C 13.253906 13.597656 12.375 13.335938 11.65625 12.609375 C 9.769531 10.773438 8.925781 7.992188 9.125 4.265625 Z M 9.125 4.265625 "/></g></g></g><g clip-path="url(#921aff034d)"><path fill="#98d8f8" d="M 161.042969 78.902344 C 154.335938 79.105469 150.691406 86.417969 144.125 87.066406 C 134.3125 91.085938 123.585938 92.566406 113.894531 96.789062 C 107.394531 101.46875 103.636719 108.726562 99.113281 115.117188 C 95.25 124.828125 100.082031 135.078125 104.597656 143.652344 C 108.539062 150.398438 116.859375 151.445312 123.433594 154.285156 C 136.371094 158.925781 149.265625 164.054688 162.941406 166.070312 C 170.921875 167.417969 179.023438 168.128906 187.117188 167.972656 C 198.503906 165.554688 204.761719 150.261719 197.855469 140.757812 C 193.550781 129.449219 199.285156 117.804688 199.34375 106.328125 C 199.667969 99.109375 196.574219 90.847656 189.292969 88.175781 C 183.585938 86.421875 176.664062 88.589844 172.089844 83.609375 C 168.9375 81.101562 165.367188 78.210938 161.042969 78.898438 Z M 161.210938 82.433594 C 168.351562 81.753906 171.492188 91.179688 178.644531 90.457031 C 184.1875 90.425781 191.261719 91.167969 193.859375 96.894531 C 198.414062 107.453125 193.066406 118.617188 193.074219 129.449219 C 192.792969 135.171875 187.945312 141.753906 181.59375 140.164062 C 175.511719 139.222656 169.839844 133.378906 171.296875 126.957031 C 171.507812 121.15625 175.53125 116.152344 175.234375 110.300781 C 169.046875 109.777344 170.238281 118.394531 168.652344 122.429688 C 167.617188 127.640625 167.214844 132.964844 167.363281 138.273438 C 165.40625 144.03125 157.796875 147.910156 152.339844 144.433594 C 146.226562 138.507812 147.089844 129.289062 147.679688 121.546875 C 147.058594 115.542969 153.339844 111.179688 152.292969 105.117188 C 146.089844 106.066406 146.464844 113.671875 144.835938 118.292969 C 142.894531 126.382812 143.363281 135.039062 146.207031 142.863281 C 150.191406 146.816406 155.890625 151.015625 154.980469 157.355469 C 152.351562 162.226562 146.484375 159.3125 142.753906 157.570312 C 133.027344 154.214844 123.566406 150.023438 113.617188 147.316406 C 107.433594 143.121094 107.441406 134.832031 107.703125 128.15625 C 106.957031 123.03125 102.109375 130.085938 102.449219 129.28125 C 99.4375 122.683594 102.132812 114.976562 106.925781 109.972656 C 110.316406 105.164062 113.785156 99.65625 119.832031 97.976562 C 125.773438 95.957031 132.246094 95.71875 137.894531 92.8125 C 144.46875 90.640625 151.683594 89.21875 156.78125 84.144531 C 158.019531 83.128906 159.546875 82.292969 161.210938 82.433594 Z M 127.878906 113.429688 C 123.511719 120.632812 124.546875 129.4375 122.492188 137.332031 C 121.867188 142.980469 123.824219 149.6875 129.488281 152.070312 C 136.042969 155.726562 145.25 155.007812 150.382812 149.242188 C 144.949219 145.597656 139.726562 153.648438 134.175781 150.738281 C 128.996094 148.515625 124.902344 143.226562 125.945312 137.351562 C 127.0625 129.800781 128.867188 122.351562 129.742188 114.761719 C 129.554688 113.945312 128.714844 113.34375 127.878906 113.429688 Z M 193.421875 138.34375 C 195.335938 143.925781 199.097656 150.171875 196.019531 156.042969 C 193.453125 162.476562 185.660156 166.410156 178.980469 164.320312 C 173.003906 165.953125 175.464844 157.96875 176.917969 155.371094 C 177.097656 151.199219 169.976562 144.167969 167.558594 148.859375 C 169.417969 152.273438 177.132812 156.367188 170.660156 159.675781 C 166.238281 162.953125 157.636719 160.769531 157.691406 154.5625 C 158.566406 147.328125 167.101562 143.953125 173.570312 145.371094 C 180.710938 145.972656 189.101562 144.746094 193.421875 138.34375 Z M 170.96875 138.421875 C 175.140625 137.847656 172.890625 144.21875 170.832031 140.828125 C 170.628906 140.027344 170.296875 139.085938 170.96875 138.421875 Z M 170.96875 138.421875 " fill-opacity="1" fill-rule="nonzero"/></g><g fill="#98d8f8" fill-opacity="1"><g transform="translate(21.684697, 291.219062)"><g><path d="M 49.402344 -20.828125 C 49.402344 -32.742188 40.238281 -42.570312 28.242188 -42.570312 C 22.492188 -42.570312 18.328125 -40.238281 15.664062 -37.15625 L 15.664062 -58.316406 L 4.414062 -58.316406 L 4.414062 0 L 15.664062 0 L 15.664062 -4.5 C 18.328125 -1.417969 22.492188 0.917969 28.242188 0.917969 C 40.238281 0.917969 49.402344 -8.914062 49.402344 -20.828125 Z M 37.574219 -20.828125 C 37.574219 -14.828125 32.65625 -9.832031 26.660156 -9.832031 C 20.578125 -9.832031 15.664062 -14.828125 15.664062 -20.828125 C 15.664062 -26.910156 20.578125 -31.824219 26.660156 -31.824219 C 32.65625 -31.824219 37.574219 -26.910156 37.574219 -20.828125 Z M 37.574219 -20.828125 "/></g></g></g><g fill="#98d8f8" fill-opacity="1"><g transform="translate(73.252664, 291.219062)"><g><path d="M 15.664062 -31.492188 L 27.324219 -31.492188 L 27.324219 -41.65625 L 4.414062 -41.65625 L 4.414062 0 L 15.664062 0 Z M 15.664062 -31.492188 "/></g></g></g><g fill="#98d8f8" fill-opacity="1"><g transform="translate(102.244025, 291.219062)"><g><path d="M 47.152344 -20.828125 C 47.152344 -32.742188 37.738281 -42.570312 24.742188 -42.570312 C 11.664062 -42.570312 2.167969 -32.742188 2.167969 -20.828125 C 2.167969 -8.914062 11.664062 0.917969 24.742188 0.917969 C 37.738281 0.917969 47.152344 -8.914062 47.152344 -20.828125 Z M 35.40625 -20.828125 C 35.40625 -14.828125 30.65625 -9.914062 24.742188 -9.914062 C 18.660156 -9.914062 13.996094 -14.828125 13.996094 -20.828125 C 13.996094 -26.910156 18.660156 -31.824219 24.742188 -31.824219 C 30.65625 -31.824219 35.40625 -26.910156 35.40625 -20.828125 Z M 35.40625 -20.828125 "/></g></g></g><g fill="#009ae7" fill-opacity="1"><g transform="translate(151.551876, 291.219062)"><g/></g></g><g fill="#b1afff" fill-opacity="1"><g transform="translate(164.044062, 291.219062)"><g><path d="M 40.40625 -4.414062 L 40.40625 -16.496094 C 36.574219 -12.996094 30.992188 -9.996094 25.492188 -9.996094 C 18.910156 -9.996094 14.078125 -14.414062 14.078125 -21.242188 C 14.078125 -27.910156 18.746094 -31.90625 24.410156 -31.90625 C 29.492188 -31.90625 33.324219 -28.574219 40.40625 -29.910156 L 40.40625 -40.988281 C 34.40625 -39.90625 30.160156 -42.570312 23.578125 -42.570312 C 12.164062 -42.570312 2.167969 -34.40625 2.167969 -20.828125 C 2.167969 -7.246094 12.164062 0.917969 24.578125 0.917969 C 32.742188 0.917969 38.074219 -2.582031 40.40625 -4.414062 Z M 40.40625 -4.414062 "/></g></g></g><g fill="#b1afff" fill-opacity="1"><g transform="translate(207.781032, 291.219062)"><g><path d="M 47.152344 -20.828125 C 47.152344 -32.742188 37.738281 -42.570312 24.742188 -42.570312 C 11.664062 -42.570312 2.167969 -32.742188 2.167969 -20.828125 C 2.167969 -8.914062 11.664062 0.917969 24.742188 0.917969 C 37.738281 0.917969 47.152344 -8.914062 47.152344 -20.828125 Z M 35.40625 -20.828125 C 35.40625 -14.828125 30.65625 -9.914062 24.742188 -9.914062 C 18.660156 -9.914062 13.996094 -14.828125 13.996094 -20.828125 C 13.996094 -26.910156 18.660156 -31.824219 24.742188 -31.824219 C 30.65625 -31.824219 35.40625 -26.910156 35.40625 -20.828125 Z M 35.40625 -20.828125 "/></g></g></g><g fill="#b1afff" fill-opacity="1"><g transform="translate(257.099675, 291.219062)"><g><path d="M 35.988281 0 L 47.238281 0 L 47.238281 -58.316406 L 35.988281 -58.316406 L 35.988281 -37.15625 C 33.324219 -40.238281 29.160156 -42.570312 23.410156 -42.570312 C 11.414062 -42.570312 2.167969 -32.742188 2.167969 -20.828125 C 2.167969 -8.914062 11.414062 0.917969 23.410156 0.917969 C 29.160156 0.917969 33.324219 -1.417969 35.988281 -4.5 Z M 35.988281 -20.828125 C 35.988281 -14.828125 31.074219 -9.832031 24.992188 -9.832031 C 18.996094 -9.832031 14.078125 -14.828125 14.078125 -20.828125 C 14.078125 -26.910156 18.996094 -31.824219 24.992188 -31.824219 C 31.074219 -31.824219 35.988281 -26.910156 35.988281 -20.828125 Z M 35.988281 -20.828125 "/></g></g></g><g fill="#b1afff" fill-opacity="1"><g transform="translate(308.750955, 291.219062)"><g><path d="M 24.992188 -18.410156 C 27.324219 -18.410156 32.574219 -18.578125 35.988281 -20.410156 C 39.15625 -22.078125 41.40625 -25.574219 41.40625 -29.824219 C 41.40625 -36.65625 35.488281 -42.570312 24.742188 -42.570312 C 11.164062 -42.570312 2.25 -33.242188 2.25 -20.496094 C 2.25 -8.496094 10.414062 0.917969 25.328125 0.917969 C 32.074219 0.917969 37.65625 -1.167969 41.238281 -3.914062 L 41.238281 -16.164062 C 38.238281 -13.078125 33.40625 -9.664062 26.492188 -9.664062 C 18.910156 -9.664062 14.246094 -13.328125 13.996094 -19.746094 C 16.410156 -18.996094 20.746094 -18.410156 24.992188 -18.410156 Z M 22.328125 -26.324219 C 18.910156 -26.324219 16.496094 -26.660156 15.078125 -26.992188 C 16.660156 -30.992188 19.996094 -32.824219 24.242188 -32.824219 C 27.074219 -32.824219 29.660156 -31.992188 29.660156 -29.492188 C 29.660156 -26.910156 26.910156 -26.324219 22.328125 -26.324219 Z M 22.328125 -26.324219 "/></g></g></g></svg>